<svg xmlns="http://www.w3.org/2000/svg" x="0px" y="0px" viewBox="0 0 200 200" style="enable-background:new 0 0 200 200;">
	<g>
		<path fill="#4176F9" d="M106.96,198.96c-4.77,0-9.54,0-14.3,0c-0.28-0.5-0.78-0.35-1.21-0.38c-4.23-0.36-8.43-0.98-12.58-1.91
		c-40.68-9.16-70.64-41.38-76.82-82.56c-0.34-2.25-0.27-4.57-1.02-6.77c0-4.9,0-9.79,0-14.69c0.5-0.28,0.35-0.78,0.38-1.21
		c0.36-4.23,0.98-8.43,1.91-12.58C12.49,38.2,44.71,8.23,85.89,2.05c2.25-0.34,4.57-0.27,6.77-1.02c4.77,0,9.54,0,14.3,0
		c0.29,0.5,0.79,0.34,1.21,0.37c4.37,0.31,8.69,0.97,12.96,1.93c40.67,9.15,70.65,41.39,76.82,82.55c0.36,2.38,0.29,4.83,1.02,7.16
		c0,4.77,0,9.54,0,14.3c-0.5,0.28-0.35,0.78-0.38,1.21c-0.36,4.23-0.98,8.43-1.91,12.58c-9.16,40.68-41.39,70.65-82.55,76.82
		C111.73,198.3,109.29,198.24,106.96,198.96z M91.7,97.93c0.12-0.26,0.14-0.34,0.18-0.36c0.28-0.14,0.56-0.28,0.86-0.4
		c4.92-1.88,7.67-5.5,8.35-10.65c0.23-1.77,0.24-3.62,0.06-5.4c-0.72-7.06-4.01-12.34-10.73-15.28c-3.57-1.56-7.32-2.01-11.12-2.03
		c-11.92-0.06-23.83,0-35.75-0.06c-1.58-0.01-2.09,0.41-2.09,2.04c0.05,23.51,0.05,47.03,0,70.54c0,1.64,0.5,2.03,2.08,2.02
		c11.79-0.06,23.58-0.06,35.37-0.02c2.85,0.01,5.67-0.19,8.43-0.88c7.48-1.86,13.17-5.88,15.49-13.56
		c1.56-5.15,1.52-10.41,0.07-15.63C101.28,102.56,97.88,98.79,91.7,97.93z M134.59,139.87c5.04,0.1,9.12-0.38,13.07-1.7
		c8.15-2.71,12.48-8.18,13.22-16.48c0.12-1.37-0.29-1.64-1.52-1.62c-3.28,0.06-6.57,0.08-9.85-0.01c-1.21-0.03-1.66,0.39-1.89,1.53
		c-0.39,2-1.62,3.48-3.37,4.5c-3.31,1.93-6.93,2.3-10.64,1.83c-6.19-0.78-9.74-4.3-10.65-10.42c-0.35-2.32-0.3-2.38,2.05-2.38
		c11.53,0,23.06,0,34.59,0c0.95,0,1.9,0.23,1.93-1.36c0.11-4.92-0.13-9.8-1.69-14.5c-2.29-6.9-6.54-12.02-13.5-14.65
		c-5.59-2.11-11.33-2.13-17.13-1.23c-5.29,0.82-10.07,2.88-13.76,6.82c-7.57,8.06-9.78,17.74-7.91,28.43
		c1.44,8.22,5.65,14.58,13.3,18.3C125.45,139.17,130.4,139.88,134.59,139.87z M134.83,68.24c-4.57,0-9.13,0.04-13.7-0.03
		c-1.35-0.02-1.8,0.42-1.74,1.76c0.1,1.99,0.07,3.99,0.01,5.98c-0.04,1.1,0.38,1.49,1.45,1.46c1.74-0.05,3.47-0.01,5.21-0.01
		c7.4,0,14.79-0.05,22.19,0.04c1.64,0.02,2.13-0.49,2.01-2.07c-0.13-1.79-0.11-3.6-0.01-5.4c0.08-1.34-0.36-1.77-1.72-1.75
		C143.96,68.28,139.4,68.24,134.83,68.24z"/>
		<path fill="#EFF0F1" d="M91.7,97.93c6.18,0.87,9.58,4.63,11.17,10.35c1.45,5.22,1.49,10.47-0.07,15.63
		c-2.32,7.67-8.01,11.7-15.49,13.56c-2.76,0.69-5.58,0.89-8.43,0.88c-11.79-0.04-23.58-0.04-35.37,0.02
		c-1.58,0.01-2.08-0.39-2.08-2.02c0.05-23.51,0.05-47.03,0-70.54c0-1.63,0.51-2.05,2.09-2.04c11.92,0.06,23.83-0.01,35.75,0.06
		c3.8,0.02,7.54,0.47,11.12,2.03c6.72,2.93,10.01,8.21,10.73,15.28c0.18,1.78,0.18,3.62-0.06,5.4c-0.67,5.15-3.42,8.78-8.35,10.65
		c-0.29,0.11-0.58,0.26-0.86,0.4C91.84,97.59,91.82,97.67,91.7,97.93z M69.99,105.14c-3.28,0-6.56,0.03-9.84-0.02
		c-1.12-0.02-1.6,0.28-1.59,1.51c0.05,5.66,0.05,11.32,0,16.97c-0.01,1.16,0.32,1.58,1.52,1.54c2.38-0.08,4.76,0.02,7.14-0.03
		c4.56-0.09,9.14,0.35,13.68-0.24c3.89-0.5,5.94-2.49,6.81-6.3c0.54-2.36,0.45-4.75-0.16-7.07c-1.1-4.17-3.94-6.31-8.3-6.35
		C76.16,105.12,73.07,105.14,69.99,105.14z M70.09,77.1c-3.34,0-6.69,0.01-10.03-0.01c-0.84,0-1.5,0.03-1.49,1.18
		c0.04,4.76,0.02,9.52,0.01,14.27c0,0.77,0.24,1.19,1.1,1.19c6.75-0.04,13.5,0.05,20.25-0.12c2.89-0.07,4.32-1.58,5.07-4.44
		c0.6-2.28,0.6-4.61,0.24-6.89c-0.55-3.5-2.67-5.17-6.27-5.19C76,77.09,73.04,77.1,70.09,77.1z"/>
		<path fill="#EFF0F1" d="M134.59,139.87c-4.18,0.01-9.14-0.69-13.74-2.94c-7.65-3.73-11.86-10.08-13.3-18.3
		c-1.87-10.69,0.34-20.37,7.91-28.43c3.69-3.93,8.47-5.99,13.76-6.82c5.79-0.9,11.53-0.88,17.13,1.23
		c6.96,2.63,11.21,7.75,13.5,14.65c1.56,4.71,1.8,9.58,1.69,14.5c-0.03,1.59-0.98,1.35-1.93,1.36c-11.53,0-23.06,0-34.59,0
		c-2.35,0-2.4,0.06-2.05,2.38c0.91,6.12,4.46,9.64,10.65,10.42c3.71,0.47,7.33,0.09,10.64-1.83c1.75-1.01,2.97-2.5,3.37-4.5
		c0.23-1.15,0.67-1.57,1.89-1.53c3.28,0.09,6.57,0.07,9.85,0.01c1.23-0.02,1.64,0.25,1.52,1.62c-0.75,8.3-5.07,13.77-13.22,16.48
		C143.71,139.48,139.63,139.97,134.59,139.87z M134.79,105.14c3.6,0,7.2,0.01,10.79-0.01c0.74,0,1.54,0.19,1.48-1.11
		c-0.19-4.25-3.35-8.54-7.29-9.74c-7.36-2.24-14.63,1.82-16.72,9.26c-0.4,1.43,0.09,1.63,1.32,1.62
		C127.85,105.11,131.32,105.14,134.79,105.14z"/>
		<path fill="#EFF0F1" d="M134.83,68.24c4.57,0,9.13,0.05,13.7-0.03c1.36-0.02,1.8,0.41,1.72,1.75c-0.1,1.8-0.13,3.61,0.01,5.4
		c0.12,1.59-0.37,2.09-2.01,2.07c-7.4-0.09-14.79-0.04-22.19-0.04c-1.74,0-3.47-0.04-5.21,0.01c-1.07,0.03-1.49-0.36-1.45-1.46
		c0.07-1.99,0.09-3.99-0.01-5.98c-0.06-1.34,0.39-1.78,1.74-1.76C125.7,68.28,130.26,68.24,134.83,68.24z"/>
		<path fill="#4176F9" d="M69.99,105.14c3.09,0,6.17-0.03,9.26,0.01c4.36,0.05,7.2,2.19,8.3,6.35c0.61,2.32,0.7,4.71,0.16,7.07
		c-0.87,3.81-2.93,5.8-6.81,6.3c-4.54,0.59-9.12,0.15-13.68,0.24c-2.38,0.05-4.76-0.05-7.14,0.03c-1.2,0.04-1.53-0.38-1.52-1.54
		c0.05-5.66,0.05-11.32,0-16.97c-0.01-1.23,0.47-1.52,1.59-1.51C63.43,105.17,66.71,105.14,69.99,105.14z"/>
		<path fill="#4176F9" d="M70.09,77.1c2.96,0,5.91-0.01,8.87,0c3.6,0.01,5.72,1.68,6.27,5.19c0.36,2.29,0.36,4.61-0.24,6.89
		c-0.75,2.86-2.18,4.37-5.07,4.44c-6.75,0.17-13.5,0.09-20.25,0.12c-0.86,0-1.1-0.42-1.1-1.19c0.01-4.76,0.03-9.52-0.01-14.27
		c-0.01-1.16,0.65-1.19,1.49-1.18C63.4,77.11,66.74,77.1,70.09,77.1z"/>
		<path fill="#4176F9" d="M134.79,105.14c-3.47,0-6.94-0.03-10.41,0.02c-1.23,0.02-1.73-0.18-1.32-1.62c2.09-7.44,9.35-11.5,16.72-9.26
		c3.95,1.2,7.1,5.49,7.29,9.74c0.06,1.3-0.75,1.11-1.48,1.11C141.99,105.14,138.39,105.14,134.79,105.14z"/>
	</g>
</svg>
