<svg xmlns="http://www.w3.org/2000/svg" x="0px" y="0px" viewBox="0 0 200 200" style="enable-background:new 0 0 200 200;">
	<g>
		<path d="M23.89,200c-4.11-1.12-8.03-2.62-11.31-5.45c-6.28-5.42-9.2-12.28-8.7-20.56c0.15-2.42,1.78-3.77,4.53-3.77
		c8.13-0.02,16.26-0.01,24.38-0.01c0.71,0,1.42,0,2.14,0c0.13-0.81-0.52-0.93-0.88-1.2c-16.83-12.8-26.64-29.71-29.67-50.59
		c-0.37-2.57-0.54-5.16-0.54-7.77c0.03-12.03,0.01-24.06,0.01-36.09c0-3.7,1.33-5,5.08-5c8.52-0.01,17.04,0,25.55-0.01
		c0.69,0,1.41,0.19,2.09-0.19c-0.07-0.76-0.7-1.08-1.13-1.51c-3.02-3.05-6.09-6.05-9.09-9.12c-4.68-4.8-6.26-10.47-3.97-16.84
		c2.3-6.38,7.17-9.72,13.82-10.4c3.18-0.32,6.25,0.52,8.93,2.23c1.4,0.89,2.35,0.91,3.79,0.05c5.23-3.12,10.66-3.19,15.92-0.13
		c5.42,3.15,8.01,8.06,7.85,14.28c-0.11,4.44-2.14,8.09-5.27,11.19c-2.87,2.83-5.71,5.7-8.55,8.55c-0.49,0.49-0.95,1-1.47,1.55
		c0.82,0.57,1.55,0.34,2.23,0.34c10.14,0.02,20.29,0,30.43,0.02c2.94,0.01,4.61,1.56,4.56,4.13c-0.04,2.11-1.49,3.7-3.6,3.9
		c-0.77,0.07-1.56,0.04-2.34,0.04c-24.71,0-49.42,0-74.13,0c-2.64,0-2.64,0-2.64,2.69c0,9.43-0.25,18.87,0.05,28.28
		c0.87,27.23,13.28,47.38,37.45,60.17c1.94,1.02,3.92,1.49,6.15,1.48c15.8-0.07,31.6-0.05,47.4-0.02c1.54,0,2.95-0.26,4.32-0.94
		c20.53-10.2,33.12-26.48,37.46-49.04c0.97-5.06,1.13-10.19,1.12-15.33c-0.01-8.13,0-16.26,0-24.38c0-2.91,0-2.91-2.82-2.91
		c-5.72,0-11.44,0.02-17.17-0.02c-2.11-0.01-3.65-1.16-4.06-2.98c-0.41-1.82,0.12-3.34,1.69-4.43c0.78-0.55,1.68-0.65,2.6-0.65
		c7.8,0.01,15.61-0.01,23.41,0.01c2.7,0.01,4.21,1.43,4.42,3.91c0.15,1.72-0.77,3.88,0.45,5.06c1.12,1.09,3.23,0.28,4.9,0.47
		c17.91,2.03,32.31,15.12,36.01,32.78c4.84,23.1-11.27,45.88-34.68,48.96c-6.54,0.86-13.13,0.53-19.67,0.27
		c-5.34-0.21-9.91,0.46-13.46,4.92c-1.25,1.57-3.17,2.61-4.85,3.95c0.76,0.55,1.49,0.31,2.17,0.31c10.6,0.02,21.2,0.01,31.8,0.02
		c3.85,0,5.13,1.29,5.14,5.15c0.03,11.8-7.08,21.05-18.56,24.16c-0.5,0.14-0.99,0.32-1.48,0.48C102.44,200,63.16,200,23.89,200z
		 M82.79,178.29c-22.49,0-44.97,0-67.46,0c-0.58,0-1.17,0.01-1.75,0c-1.07-0.02-1.37,0.47-1.09,1.48c0.67,2.42,1.75,4.6,3.39,6.51
		c3.61,4.22,8.33,5.77,13.72,5.77c22.75,0,45.49,0,68.24,0c12.87,0,25.73,0.03,38.6-0.01c7.8-0.02,13.83-4.09,16.22-10.81
		c1-2.83,0.93-2.95-2.02-2.95C128.02,178.29,105.4,178.29,82.79,178.29z M139.72,153.06c6.98-0.14,13.69,0.55,20.31-0.53
		c22.71-3.69,34.81-28.13,23.8-48.28c-6.03-11.04-15.78-16.53-28.28-17.24c-0.64-0.04-1.49-0.12-1.53,0.77
		c-0.1,2.07-0.6,4.31,0.2,6.16c0.59,1.36,2.61,0.45,3.97,0.64c12.63,1.76,23.32,12.73,22.28,27.86
		c-0.86,12.47-12.18,22.99-25.2,23.06c-3.05,0.02-6.11,0.02-9.16,0c-0.97-0.01-1.75,0.15-2.31,1.08
		C142.57,148.64,141.25,150.65,139.72,153.06z M29.75,47.48c-0.05,1.49,0.34,3.15,1.58,4.41c4.92,5,9.89,9.94,14.83,14.92
		c0.63,0.63,1.14,0.7,1.8,0.04c4.93-4.98,9.97-9.87,14.79-14.96c2.16-2.28,2.27-5.24,0.91-8.02c-1.33-2.71-3.68-4.09-6.76-4.14
		c-2.8-0.05-4.69,1.56-6.52,3.39c-2.26,2.25-4.29,2.21-6.61,0.02c-0.66-0.62-1.3-1.28-2.02-1.83c-2.45-1.87-5.16-2.14-7.88-0.83
		C31.13,41.81,29.69,44.09,29.75,47.48z M152.73,137.44c1.52,0.14,3.33-0.09,5.12-0.38c7.95-1.27,14.74-8.17,14.43-17.45
		c-0.31-9.21-6.53-15.59-15.62-16.77c-2.71-0.35-2.79-0.35-2.7,2.34c0.33,9.76-0.93,19.28-4.2,28.52
		C148.44,137.43,148.47,137.44,152.73,137.44z"/>
		<path d="M64.11,92.18c5.05,0.06,9.58,1.65,13.47,4.87c0.99,0.82,1.56,0.85,2.61,0.03c6.97-5.44,14.67-6.54,22.71-2.9
		c7.91,3.59,12.11,10.11,12.65,18.71c0.42,6.66-2.25,12.29-6.94,16.98c-7.82,7.81-15.62,15.64-23.46,23.44
		c-1.62,1.61-3.3,3.11-5.83,3.16c-2.14,0.04-3.95-0.57-5.47-2.09c-8.5-8.51-17.12-16.9-25.47-25.56
		c-6.43-6.67-7.91-14.65-4.45-23.25C47.31,97.18,55.13,92.16,64.11,92.18z M64.39,100.5c-5.94-0.03-10.63,2.88-12.75,7.9
		c-2.2,5.21-1.59,10.27,2.3,14.34c7.81,8.17,15.93,16.05,23.91,24.07c0.77,0.77,1.34,0.76,2.11-0.01
		c7.97-8.02,16.04-15.95,23.92-24.06c3.08-3.17,4.06-7.23,3.14-11.58c-1.08-5.13-4.18-8.67-9.23-10.12
		c-5.04-1.45-9.77-0.51-13.47,3.38c-4.43,4.66-6.24,4.97-10.87-0.02C70.97,101.72,67.75,100.38,64.39,100.5z"/>
		<path d="M120.79,13.24c0.06,4.49-1.03,7.66-3.48,10.19c-5.2,5.36-10.46,10.67-15.78,15.9c-2.28,2.24-4.36,2.13-6.63-0.12
		c-5.07-5.03-10.15-10.06-15.15-15.16c-5.06-5.17-5.51-12.83-1.2-18.51c4.22-5.56,11.9-7.12,18.2-3.63c1.09,0.6,1.85,0.69,2.99,0.03
		C109.26-3.52,120.8,3.23,120.79,13.24z M89.67,8.21c-2.35,0.26-4.33,1.21-5.22,3.49c-0.94,2.4-0.7,4.74,1.22,6.67
		c3.8,3.82,7.64,7.6,11.41,11.46c0.9,0.92,1.46,0.91,2.35,0c3.68-3.76,7.44-7.44,11.13-11.19c2.65-2.69,2.77-6.28,0.36-8.68
		c-2.43-2.42-5.9-2.26-8.68,0.39c-3.15,3-4.85,3.04-7.91,0.03C93,9.11,91.48,8.38,89.67,8.21z"/>
		<path d="M112.2,73.58c0,2.34-1.73,4.05-4.06,4.02c-2.31-0.02-4.03-1.81-3.99-4.12c0.05-2.22,1.75-3.9,3.99-3.92
		C110.47,69.54,112.2,71.25,112.2,73.58z"/>
	</g>
</svg>
