<svg xmlns="http://www.w3.org/2000/svg" x="0px" y="0px" viewBox="0 0 387 387">
	<g>
		<path d="M1.09,198.42c2.94-7,7.66-11.89,15.46-13.32c2.68-0.49,5.31-0.4,7.78,0.49c2.56,0.92,4.19,0.07,5.94-1.7
		c17.5-17.53,35.02-35.02,52.63-52.44c2.04-2.02,2.22-3.61,0.96-6.18c-6-12.17-3.66-26.13,5.74-35.66c9.4-9.53,23.68-11.99,36-5.95
		c2.6,1.27,4.18,1.01,6.18-1c17.45-17.57,35-35.04,52.52-52.55c1.22-1.22,2.46-2.28,2.09-4.46c-2.24-13.09,0.85-19.08,12.47-24.61
		c3.51,0,7.02,0,10.53,0c0.33,0.18,0.65,0.37,0.99,0.53c10.28,4.62,14.87,13.99,11.62,23.72c-3.22,9.64-12.72,14.52-23.55,11.88
		c-2.16-0.53-3.25,0.36-4.52,1.63c-6.98,6.99-13.99,13.96-21,20.92c-2.64,2.62-5.31,5.21-8.13,7.97c0.71,0.24,0.97,0.42,1.14,0.36
		c1.42-0.48,2.84-0.99,4.24-1.51c39.08-14.44,78.46-15.26,118.09-2.49c17.28,5.57,33.28,13.77,47.98,24.41
		c2.32,1.68,3.81,1.68,5.66-0.45c1.8-2.07,3.86-3.92,5.82-5.85c4.5-4.4,7.43-4.43,11.85-0.11c2.68,2.62,5.37,5.25,7.96,7.96
		c6.14,6.4,12.93,12.17,18.54,19.09c0,1.75,0,3.5,0,5.25c-8.98,9.07-17.9,18.19-26.96,27.19c-3.74,3.71-7.04,3.7-10.81,0.03
		c-8.42-8.22-16.77-16.51-25.06-24.86c-3.35-3.37-3.24-6.74,0.05-10.19c1.29-1.36,2.57-2.76,4.03-3.93c2.57-2.06,1.91-3.4-0.53-5.06
		c-22.44-15.28-47.01-24.87-74.05-28.09c-38.49-4.59-74.15,3.49-107.17,23.58c-1.28,0.78-2.49,1.7-3.8,2.41
		c-1.81,0.98-1.94,2.19-1.16,4.02c8.25,19.25-4.71,41.42-26.58,43.22c-4.85,0.4-9.54-0.4-13.93-2.29c-2.57-1.11-3.75-0.38-5.12,1.76
		c-13.6,21.16-22.3,44.1-25.37,69.1c-5,40.74,4.05,78.17,26.54,112.45c0.75,1.15,1.6,2.24,2.34,3.4c1.12,1.74,2.24,1.63,3.59,0.21
		c1.63-1.73,3.3-3.43,5.07-5.02c3.06-2.76,6.51-2.93,9.41-0.08c8.66,8.51,17.24,17.1,25.7,25.8c3.24,3.33,3.23,6.64-0.01,9.95
		c-8.32,8.49-16.74,16.89-25.27,25.18c-3.6,3.5-6.94,3.36-10.55-0.19c-8.29-8.17-16.53-16.39-24.72-24.67
		c-3.69-3.73-3.59-6.88,0.13-10.74c2.08-2.16,4.13-4.38,6.39-6.35c2.15-1.87,2.1-3.37,0.43-5.66
		c-10.75-14.78-18.98-30.9-24.56-48.29c-12.78-39.89-11.66-79.46,3.1-118.65c0.43-1.14,0.83-2.28,1.28-3.51
		c-1.48-0.25-1.91,0.85-2.54,1.47c-8.98,8.89-17.92,17.83-26.9,26.73c-1.38,1.37-2.32,2.55-1.72,4.84
		c2.75,10.57-2.03,19.94-11.62,23.33c-9.72,3.44-19.32-1.04-23.97-11.18c-0.21-0.45-0.44-0.9-0.65-1.35
		C1.09,205.43,1.09,201.93,1.09,198.42z M93.65,111.45c-0.06,10.33,7.82,18.4,18.06,18.48c10.22,0.08,18.46-7.99,18.51-18.13
		c0.05-10.24-7.94-18.33-18.17-18.38C101.54,93.36,93.71,101.05,93.65,111.45z M370.44,111.13c-0.21-0.29-0.44-0.74-0.78-1.08
		c-4.85-4.86-9.72-9.71-14.58-14.57c-1.52-1.52-2.43-0.22-3.39,0.73c-4.34,4.31-8.61,8.71-13.03,12.93
		c-1.73,1.65-1.92,2.79-0.08,4.54c4.44,4.21,8.75,8.56,13,12.96c1.55,1.6,2.67,1.75,4.29,0.06c4.33-4.49,8.82-8.85,13.22-13.27
		C369.69,112.83,370.47,112.3,370.44,111.13z M111.41,336.31c-0.33,0.25-0.87,0.56-1.3,0.99c-4.7,4.66-9.36,9.37-14.09,14
		c-1.49,1.46-0.59,2.36,0.45,3.39c4.52,4.49,9.08,8.94,13.51,13.52c1.51,1.56,2.52,1.42,3.96-0.08c4.25-4.4,8.59-8.72,12.99-12.98
		c1.55-1.5,1.9-2.65,0.18-4.31c-4.49-4.34-8.86-8.81-13.29-13.21C113.22,337.03,112.66,336.29,111.41,336.31z M209.96,19.53
		c0.04-3.2-2.72-6.06-5.82-6.06c-3.1,0-5.83,2.87-5.82,6.1c0.02,2.98,2.69,5.73,5.67,5.84C207.17,25.52,209.92,22.81,209.96,19.53z
		 M19.37,197.91c-3.1,0.09-5.36,2.5-5.25,5.59c0.11,3.06,2.82,5.72,5.83,5.71c2.88-0.01,5.54-2.65,5.56-5.51
		C25.52,200.59,22.59,197.82,19.37,197.91z"/>
		<path d="M386.09,288.48c-1.05,1.24-2.02,2.56-3.16,3.7c-29.94,29.91-59.89,59.8-89.85,89.69c-0.44,0.44-0.88,0.89-1.34,1.31
		c-4.31,3.88-8.66,3.18-11.31-2.02c-5.84-11.49-11.63-23-17.29-34.57c-1.31-2.67-3.11-4.22-5.88-5.26
		c-19.92-7.52-39.77-15.2-59.67-22.77c-2.9-1.1-4.75-2.98-5.9-5.85c-20.39-50.98-40.8-101.94-61.26-152.89
		c-1.4-3.5-0.74-6.26,1.87-8.83c6.33-6.24,12.63-12.51,18.87-18.84c2.68-2.72,5.5-3.42,9.16-1.95
		c50.93,20.38,101.88,40.7,152.84,60.99c3.15,1.26,5.05,3.32,6.25,6.48c7.61,19.98,15.36,39.91,22.97,59.9
		c0.87,2.3,2.25,3.68,4.41,4.74c11.47,5.63,22.87,11.39,34.31,17.07c1.93,0.96,3.74,2.03,4.98,3.86
		C386.09,284.98,386.09,286.73,386.09,288.48z M253,287.97c-27.32,0.05-44.73-29.1-31.45-52.85c1.47-2.62,1.17-3.98-0.85-5.99
		c-22.3-22.13-44.51-44.35-66.75-66.54c-1.95-1.95-3.89-3.9-5.85-5.83c-0.7-0.69-1.42-1.62-2.54-0.68
		c-0.85,0.71-1.89,1.41-1.55,2.76c0.24,0.96,0.62,1.9,0.99,2.83c18.93,47.23,37.89,94.45,56.76,141.71
		c1.03,2.57,2.57,4.03,5.09,4.99c18.03,6.83,36.04,13.71,54.01,20.7c2.49,0.97,4.05,0.58,5.91-1.29
		c20.49-20.58,41.04-41.09,61.65-61.55c1.84-1.83,2.34-3.37,1.36-5.89c-7.01-17.93-13.91-35.9-20.74-53.9
		c-1.02-2.69-2.66-4.2-5.33-5.26c-23.4-9.25-46.76-18.63-70.13-27.96c-24.07-9.61-48.15-19.19-72.21-28.82
		c-1.91-0.76-3.6-1.29-4.91,0.81c-1.25,2,0.8,2.65,1.71,3.57c23.88,23.91,47.82,47.76,71.69,71.69c1.78,1.78,3.02,2.22,5.4,0.86
		c6.55-3.75,13.65-5.27,21.29-4.44c19.38,2.1,32.92,18.17,31.98,38.19C287.69,273.03,271.61,287.94,253,287.97z M340.71,273.76
		c-1.71-0.1-2.49,0.98-3.35,1.85c-20.56,20.51-41.1,41.04-61.7,61.51c-1.49,1.48-1.75,2.67-0.77,4.56
		c4.02,7.78,7.95,15.6,11.76,23.48c1.25,2.58,2.26,2.73,4.28,0.71c25.21-25.24,50.46-50.44,75.74-75.61
		c1.79-1.78,1.99-2.81-0.56-4.04c-7.89-3.81-15.7-7.8-23.55-11.7C341.9,274.18,341.18,273.95,340.71,273.76z M275.53,252.45
		c0.06-12.93-9.83-22.98-22.65-23.03c-12.61-0.05-22.96,10.26-22.98,22.89c-0.02,12.62,9.91,22.57,22.62,22.68
		C265.57,275.11,275.47,265.41,275.53,252.45z"/>
	</g>
</svg>
