<svg xmlns="http://www.w3.org/2000/svg" x="0px" y="0px" viewBox="0 0 200 200" style="enable-background:new 0 0 200 200;">
	<g>
		<path fill="#D74579" d="M199,92.59c0,5.09,0,10.18,0,15.27c-0.25,1.7-0.52,3.39-0.73,5.09c-5.07,39.98-34.58,73.26-73.66,83.13
		c-5.52,1.39-11.15,2.06-16.75,2.93c-5.09,0-10.18,0-15.27,0c-2.73-0.39-5.47-0.75-8.2-1.18c-42.56-6.7-76.3-41.03-82.22-83.54
		c-0.61-4.38-0.59-8.79-1.17-13.16c0-0.75,0-1.5,0-2.24c0.11-0.73,0.31-1.47,0.31-2.2c0.04-5.41,0.78-10.73,1.81-16.02
		C11.03,39.91,45.06,7.8,86.18,2.14C90.25,1.58,94.37,1.61,98.43,1c1.05,0,2.1,0,3.14,0c3.64,0.3,7.29,0.47,10.91,0.93
		c41.14,5.16,74.66,35.44,84.09,75.87C197.71,82.68,198.23,87.66,199,92.59z M96.66,184.15c13.67,0.02,23.68-1.82,33.39-5.44
		c1.98-0.74,2.67-1.77,2.26-3.86c-3.86-19.95-9.46-39.41-16.5-58.46c-0.68-1.83-1.54-2.17-3.36-1.49
		c-9.36,3.48-18.32,7.76-26.72,13.18c-14.53,9.38-26.83,20.99-35.78,35.94c-1.11,1.86-0.95,2.9,0.87,4.2
		C65.55,178.72,81.92,183.99,96.66,184.15z M16.31,106.26c0.76,16.26,7.25,33.11,19.39,47.8c1.3,1.57,1.89,1.49,3.03-0.19
		c16.99-25.25,38.99-44.17,68.36-53.66c1.43-0.46,1.77-1.04,1.08-2.41c-1.54-3.07-3.1-6.15-4.43-9.32
		c-0.92-2.18-2.09-2.52-4.33-1.89C74.08,93.7,48.23,97.32,21.92,97.66C15.96,97.73,16.15,96.6,16.31,106.26z M21.87,82.59
		c6.74-0.48,13.69-0.59,20.62-1.22c16.86-1.53,33.51-4.21,49.92-8.39c2.67-0.68,2.69-0.71,1.36-3.01
		c-8.59-14.92-17.93-29.35-27.9-43.38c-1.3-1.82-2.38-2.16-4.39-1.09c-14.8,7.85-26.36,19.02-34.63,33.57
		c-3.72,6.54-6.43,13.49-8.24,20.79c-0.61,2.46-0.4,2.7,2.18,2.73C21.08,82.59,21.38,82.59,21.87,82.59z M97.45,16.17
		c-2.85-0.11-8.41,0.51-13.93,1.61c-2.5,0.5-2.6,0.74-1.19,2.76c0.09,0.12,0.17,0.25,0.26,0.37c10.25,14.1,19.67,28.74,28.08,44.02
		c0.91,1.65,1.83,1.99,3.58,1.28c9.2-3.7,17.87-8.36,25.84-14.28c5-3.71,9.56-7.88,13.61-12.63c1.39-1.63,1.75-2.87-0.3-4.11
		c-0.38-0.23-0.69-0.57-1.04-0.85C137.05,22.37,119.71,16.21,97.45,16.17z M144.86,95.17c12.88-0.08,24.76,1.21,36.56,3.25
		c2.46,0.42,2.78,0.2,2.63-2.35c-0.16-2.76-0.45-5.51-0.84-8.25c-2.06-14.37-7.63-27.28-16.39-38.84c-1.09-1.43-1.84-1.68-3.04-0.13
		c-1.32,1.71-2.79,3.32-4.33,4.85c-11.06,11.03-24.04,19.18-38.34,25.31c-1.86,0.8-2.35,1.57-1.41,3.49
		c1.85,3.75,3.57,7.58,5.15,11.45c0.74,1.82,1.83,2.3,3.64,2.06C134.22,95.25,139.98,95.1,144.86,95.17z M146.79,108.77
		c-3.15-0.07-7.99,0.28-12.82,0.92c-2.59,0.34-2.69,0.47-1.83,2.93c6.21,17.74,11.25,35.79,14.83,54.25
		c0.47,2.43,0.81,2.57,2.83,1.06c17.43-13.07,28.38-30.25,32.85-51.58c0.43-2.05-0.17-2.94-2.2-3.46
		C169.96,110.19,159.33,108.78,146.79,108.77z"/>
	</g>
</svg>
