<svg xmlns="http://www.w3.org/2000/svg" x="0px" y="0px" viewBox="0 0 200 150" style="enable-background:new 0 0 200 150;">
	<g>
		<path d="M199,14.78c0,40.12,0,80.24,0,120.36c-0.14,0.35-0.33,0.69-0.43,1.05c-1.99,7.51-9.41,12.83-18.52,12.8
		c-53.63-0.17-107.26-0.07-160.9-0.09c-10.62,0-18.11-7.36-18.14-17.75C1,121.57,1.02,111.98,1.02,102.4
		c0-27.75,0.01-55.5-0.02-83.25c0-2.95,0.36-5.8,1.77-8.43C6.27,4.19,11.8,1,19.35,1C73.18,1.02,127,1.01,180.83,1.01
		c0.52,0,1.03,0,1.55,0.02c3.79,0.14,7.14,1.43,10.13,3.69C195.93,7.31,197.75,10.86,199,14.78z M21.97,12.75
		c0.2,0.85,0.8,1.17,1.24,1.6C48.4,38.82,73.6,63.27,98.77,87.76c1.3,1.27,2.04,1.32,3.37,0.02c25-24.57,50.05-49.08,75.07-73.62
		c0.38-0.37,0.99-0.63,0.93-1.41C126.12,12.75,74.13,12.75,21.97,12.75z M21.67,137.11c52.44,0,104.47,0,156.79,0
		c-0.49-0.54-0.77-0.88-1.08-1.19c-17.44-17.08-34.89-34.16-52.29-51.27c-1.19-1.17-1.86-1-2.94,0.07
		c-5.51,5.48-11.09,10.91-16.65,16.33c-3.43,3.34-6.61,3.34-10.06,0.01c-5.64-5.45-11.3-10.87-16.86-16.39
		c-1.33-1.32-2.07-1.45-3.5-0.04c-17.25,17-34.57,33.93-51.87,50.88C22.75,135.96,22.33,136.43,21.67,137.11z M13.04,128.71
		c0.74-0.68,1.21-1.1,1.66-1.53c17.25-16.9,34.51-33.8,51.76-50.7c1.8-1.76,1.8-1.76,0.04-3.47C49.22,56.22,31.94,39.44,14.66,22.66
		c-0.44-0.43-0.77-1.02-1.61-1.15C13.04,57.14,13.04,92.72,13.04,128.71z M187.13,21.56c-0.72,0.04-0.98,0.53-1.33,0.87
		c-17.39,17.03-34.76,34.07-52.19,51.06c-1.26,1.22-1.08,1.89,0.08,3.02c17.37,16.96,34.7,33.95,52.05,50.93
		c0.37,0.37,0.63,0.98,1.39,0.89C187.13,92.73,187.13,57.15,187.13,21.56z"/>
	</g>
</svg>
