<svg xmlns="http://www.w3.org/2000/svg" x="0px" y="0px" viewBox="0 0 200 200" style="enable-background:new 0 0 200 200;">
	<g>
		<path d="M100.03,9.08c26.77,0,53.55-0.01,80.32,0.01c9.44,0.01,16.67,5.27,18.96,13.72c0.46,1.71,0.69,3.46,0.69,5.24
		c-0.01,44.98,0,89.95-0.02,134.93c-0.01,10.94-7.98,18.84-18.95,18.85c-10.34,0.02-20.68,0.02-31.02-0.02
		c-2.74-0.01-4.62-1.77-4.87-4.35c-0.23-2.37,1.59-4.57,4.22-5.03c0.83-0.14,1.69-0.14,2.54-0.14c9.56-0.01,19.12,0,28.69-0.01
		c6.51-0.01,9.83-3.32,9.84-9.77c0.01-31.87,0-63.75,0-95.62c0-2.82-0.01-2.83-2.79-2.83c-22.59,0-45.19-0.02-67.78,0.03
		c-2.25,0.01-4.09-0.6-5.87-1.96c-4.51-3.43-9.12-6.72-13.66-10.12c-1.13-0.85-2.28-1.26-3.71-1.26
		c-28.12,0.03-56.24,0.04-84.36-0.02c-1.98,0-2.71,0.51-2.71,2.62C9.59,89.91,9.57,126.45,9.58,163c0,5.76,3.49,9.26,9.25,9.28
		c9.77,0.03,19.55,0.01,29.32,0.01c1.06,0,2.12-0.02,3.16,0.29c2.25,0.68,3.76,2.79,3.52,4.94c-0.27,2.43-2.04,4.26-4.5,4.27
		c-11.33,0.04-22.67,0.23-34-0.08c-8.48-0.23-15.94-8.49-16.33-17.31C0,163.91,0,163.41,0,162.92C0,118.01-0.01,73.1,0.01,28.2
		c0-9.22,5.8-16.66,14.43-18.57c1.94-0.43,3.91-0.56,5.91-0.56C46.91,9.08,73.47,9.08,100.03,9.08z M99.96,18.62
		c-23.16,0-46.32,0-69.47,0c-3.75,0-7.51-0.04-11.26,0.01c-6.09,0.08-9.62,3.64-9.65,9.68c-0.01,2.97,0,5.95,0,8.92
		c0,3.78,0,3.79,3.81,3.79c27.9,0,55.81,0.01,83.71-0.02c2.85,0,5.35,0.57,7.68,2.43c4.1,3.26,8.45,6.2,12.6,9.39
		c1.54,1.18,3.09,1.75,5.06,1.7c4.6-0.12,9.21-0.04,13.81-0.04c17.21,0,34.42,0,51.63,0c1.27,0,2.58,0.25,2.57-1.8
		c-0.06-8.57,0.06-17.14-0.09-25.71c-0.06-3.54-1.97-6.15-5.3-7.55c-1.66-0.7-3.42-0.81-5.21-0.81
		C153.22,18.62,126.59,18.62,99.96,18.62z"/>
		<path d="M100.06,77.08c7.36,0,14.73-0.01,22.09,0c4.13,0.01,5.39,0.92,6.76,4.72c2.86,7.89,8.32,13.18,16.17,16.02
		c4.25,1.54,5.1,2.64,5.1,7.13c0.01,10.9-0.17,21.81,0.05,32.71c0.21,9.92-3.37,18.27-9.79,25.52
		c-10.62,11.97-23.96,20.19-38.14,27.19c-1.57,0.77-3.12,0.73-4.7-0.03c-13.15-6.34-25.48-13.9-35.81-24.38
		c-5.51-5.59-9.8-11.93-11.37-19.78c-0.4-2-0.6-4.07-0.61-6.11c-0.06-11.75-0.03-23.51-0.02-35.26c0-4.33,0.89-5.49,5.02-6.97
		c7.94-2.85,13.44-8.18,16.29-16.17c1.28-3.59,2.62-4.58,6.43-4.59C85.05,77.07,92.56,77.08,100.06,77.08z M100.09,86.63
		c-6.23,0-12.47,0.04-18.7-0.03c-1.53-0.02-2.43,0.4-3.12,1.86c-3.56,7.48-9.39,12.68-16.8,16.16c-1.58,0.74-2.18,1.58-2.17,3.34
		c0.08,9.63,0.29,19.27-0.04,28.89c-0.29,8.3,2.83,15.01,8.22,20.94c8.8,9.71,19.58,16.66,31.26,22.35c0.82,0.4,1.56,0.48,2.41,0.05
		c12.16-6.14,23.53-13.37,32.4-23.95c4.08-4.87,7.08-10.27,7.1-16.87c0.02-10.55-0.02-21.11,0.04-31.66
		c0.01-1.59-0.56-2.35-1.99-3.02c-7.48-3.49-13.39-8.71-16.99-16.26c-0.64-1.34-1.43-1.86-2.92-1.85
		C112.56,86.67,106.32,86.63,100.09,86.63z"/>
		<path d="M167.87,36.66c-0.03-2.75,1.87-4.7,4.6-4.73c2.65-0.02,4.75,1.98,4.82,4.61c0.07,2.46-2.21,4.81-4.69,4.82
		C169.99,41.37,167.9,39.29,167.87,36.66z"/>
		<path d="M127.2,31.94c2.6,0,4.78,2.15,4.75,4.68c-0.03,2.55-2.23,4.74-4.76,4.74c-2.53,0-4.73-2.2-4.75-4.75
		C122.43,34.08,124.61,31.94,127.2,31.94z"/>
		<path d="M149.81,31.94c2.71-0.03,4.7,1.91,4.72,4.61c0.02,2.64-2,4.74-4.62,4.81c-2.45,0.07-4.8-2.23-4.81-4.7
		C145.11,34.06,147.19,31.97,149.81,31.94z"/>
		<path d="M125.15,119.86c-0.03,1.43-0.53,2.58-1.37,3.59c-7.38,8.87-14.74,17.76-22.16,26.59c-2.1,2.5-4.94,2.79-7.27,0.53
		c-6.1-5.91-12.1-11.93-18.03-18.01c-2.12-2.17-1.96-4.94-0.01-6.84c1.9-1.85,4.72-1.81,6.86,0.28c4.26,4.15,8.47,8.35,12.61,12.62
		c1.25,1.28,1.95,1.29,3.12-0.14c5.73-7.02,11.57-13.95,17.37-20.91c1.3-1.56,2.89-2.53,5.01-2.07c1.87,0.41,3.17,1.52,3.67,3.43
		C125.06,119.26,125.11,119.61,125.15,119.86z"/>
	</g>
</svg>
