<svg xmlns="http://www.w3.org/2000/svg" x="0px" y="0px" viewBox="0 0 200 200" style="enable-background:new 0 0 200 200;">
	<g>
		<path d="M99.77,169.1c-31.08,0-62.16,0-93.24,0c-5.09,0-6.51-1.41-6.52-6.44c0-6.16-0.03-12.31,0.01-18.47
		c0.12-17.43,15.04-32.22,32.51-32.41c11.14-0.12,20.2,4.11,27.14,12.74c1.51,1.87,1.91,1.12,2.79-0.39
		c6.88-11.76,17.02-18.95,30.48-21.31c17.12-3,34.65,5.1,43.72,20.16c1.93,3.21,1.88,3.16,4.3,0.48
		c9.57-10.59,21.44-14.25,35.04-10.22c13.66,4.06,21.75,13.79,23.49,27.87c0.96,7.82,0.29,15.85,0.21,23.78
		c-0.02,2.21-2,3.94-4.25,4.15c-0.88,0.08-1.78,0.04-2.67,0.04C161.78,169.1,130.77,169.1,99.77,169.1z M99.82,159.1
		c6.08,0,12.17,0,18.25,0c4.23,0,8.46-0.01,12.69,0c1.19,0,2.05-0.26,2.03-1.69c-0.06-5.49,0.44-11.04-0.24-16.45
		c-2.25-17.99-18.42-30.39-36.01-28.54c-13.77,1.45-25.23,11.23-28.61,24.67c-1.6,6.37-0.62,12.85-0.97,19.27
		c-0.12,2.17,0.7,2.79,2.81,2.78C79.79,159.06,89.8,159.1,99.82,159.1z M33.57,159.1c7.04,0,14.08,0,21.12,0
		c1.12,0,2.33,0.14,2.31-1.58c-0.08-5.62,0.45-11.29-0.56-16.86c-1.97-10.85-11.62-18.76-22.73-18.84
		c-11.41-0.08-20.99,7.48-23.2,18.48c-1.08,5.35-0.24,10.79-0.52,16.18c-0.11,2.07,0.68,2.69,2.69,2.66
		C19.64,159.05,26.6,159.1,33.57,159.1z M166.14,159.1c7.11,0,14.23-0.04,21.34,0.03c1.73,0.02,2.37-0.61,2.33-2.34
		c-0.09-4.22,0.03-8.45-0.07-12.67c-0.28-11.8-10.21-21.71-21.79-22.33c-14.51-0.78-24.02,10.62-24.86,20.76
		c-0.39,4.67-0.08,9.33-0.33,13.99c-0.12,2.16,0.76,2.63,2.71,2.6C152.35,159.05,159.25,159.1,166.14,159.1z"/>
		<path d="M68.06,62.95c-0.01-17.76,14.32-32.14,31.93-32.06c17.6,0.08,31.71,14.34,31.7,32.03c-0.01,17.72-14.08,31.81-31.78,31.82
		C82.24,94.74,68.07,80.59,68.06,62.95z M121.68,63c0.04-12.2-9.56-22.14-21.72-22.03c-13.73,0.12-21.99,11.37-21.9,21.68
		c0.11,12.3,9.47,22.01,21.66,22.06C112.02,84.76,121.64,75.25,121.68,63z"/>
		<path d="M190.38,83.56c-0.04,13.06-10.98,24-23.98,23.97c-13.33-0.03-23.97-10.88-23.91-24.39c0.05-13,10.79-23.68,23.89-23.74
		C179.45,59.34,190.42,70.38,190.38,83.56z M152.49,83.52c0.02,7.71,6.17,13.96,13.78,13.99c7.66,0.03,14.06-6.34,14.08-14
		c0.02-7.7-6.23-14-13.98-14.1C158.75,69.31,152.48,75.68,152.49,83.52z"/>
		<path d="M57.31,83.46c0,13.31-10.84,24.17-24.02,24.06C20.2,107.42,9.41,96.54,9.41,83.46c0-13.08,10.81-23.96,23.89-24.06
		C46.48,59.31,57.31,70.15,57.31,83.46z M47.3,83.42c-0.01-7.74-6.12-13.96-13.76-14.01c-7.66-0.05-14.07,6.3-14.1,13.97
		c-0.03,7.71,6.19,14,13.95,14.13C41.01,97.64,47.31,91.26,47.3,83.42z"/>
	</g>
</svg>
