<svg xmlns="http://www.w3.org/2000/svg" x="0px" y="0px" viewBox="0 0 200 200" style="enable-background:new 0 0 200 200;">
	<g>
		<path fill="#F06529" d="M0.07,16.47c0-0.65,0-1.3,0-1.95c0.68-0.38,0.54-1.13,0.7-1.71c1.52-5.32,4.87-8.99,9.85-11.3
		c1.27-0.59,2.78-0.49,3.9-1.44c0.65,0,1.3,0,1.95,0c0.76,0.5,1.63,0.39,2.47,0.39c54.07,0,108.14,0,162.21,0
		c0.84,0,1.7,0.1,2.47-0.39c0.52,0,1.04,0,1.56,0c0.23,0.57,0.76,0.36,1.17,0.45c7.09,1.59,12.59,7.36,13.3,13.95
		c-0.01,0.91-0.02,1.82-0.02,2.73c0,54.97,0,109.93,0,164.9c0,1.42,0.01,2.84,0.01,4.25c-0.95,4.42-3.29,7.92-6.92,10.59
		c-2.04,1.51-4.51,2.05-6.76,3.07c-57.41,0-114.81,0-172.22,0c-0.17-0.54-0.71-0.53-1.1-0.65c-6.23-1.93-10.19-6.03-11.96-12.3
		c-0.11-0.39-0.02-0.95-0.6-1.11c0-0.78,0-1.56,0-2.34c0.49-0.76,0.39-1.63,0.39-2.47c0-54.07,0-108.14,0-162.21
		C0.46,18.09,0.56,17.23,0.07,16.47z M100.03,62.64c-14.64,0-29.28,0.02-43.92-0.03c-1.45,0-1.94,0.3-1.72,1.86
		c0.38,2.77,0.51,5.57,0.77,8.35c1.28,13.91,2.59,27.82,3.86,41.73c1.15,12.63,2.28,25.25,3.36,37.89c0.11,1.33,0.57,1.86,1.89,2.15
		c10.73,2.33,21.43,4.77,32.16,7.13c1.44,0.32,2.85,1.03,4.38,0.69c11.73-2.61,23.45-5.26,35.19-7.82c1.26-0.27,1.68-0.8,1.79-2.03
		c1.57-17.61,3.18-35.22,4.79-52.83c1.06-11.71,2.1-23.43,3.21-35.14c0.15-1.57-0.26-1.98-1.83-1.97
		C129.31,62.67,114.67,62.64,100.03,62.64z M111.2,43.22c-0.53-0.8-1.11-1.45-1.42-2.2c-1.21-2.98-3.37-3.87-6.46-3.5
		c-1.4,0.17-1.71,0.57-1.68,1.85c0.07,3.64,0.03,7.29,0.03,10.93c0,4.2,0,4.15,4.23,4.14c1.36,0,1.81-0.41,1.78-1.77
		c-0.04-1.82-0.22-3.67,0.22-5.93c0.73,1.19,1.21,2.02,1.73,2.81c0.55,0.83,0.88,1.82,1.81,2.6c0.59-0.98,1.04-1.84,1.59-2.63
		c0.55-0.79,0.75-1.87,1.93-2.44c0,1.18,0,2.15,0,3.12c0,4.33,0,4.28,4.35,4.24c1.33-0.01,1.65-0.48,1.63-1.7
		c-0.05-3.97-0.02-7.94-0.02-11.91c0-3.26-0.01-3.11-3.33-3.31c-1.99-0.12-3.12,0.56-4,2.27C112.99,40.98,112.32,42.19,111.2,43.22z
		 M62.57,46.15c0,1.62,0,3.25,0,4.87c0,3.4,0,3.4,3.38,3.4c2.56,0,2.54,0,2.56-2.48c0.04-3.2-0.51-2.85,3.1-2.95
		c1.38-0.04,1.77,0.44,1.77,1.78c0,3.66,0.06,3.66,3.69,3.65c0.13,0,0.26-0.02,0.39,0c1.41,0.22,1.92-0.28,1.89-1.8
		c-0.1-4.41-0.1-8.83,0-13.25c0.04-1.51-0.47-1.84-1.88-1.82c-3.98,0.05-4.01-0.01-4.09,3.86c-0.02,1.12-0.27,1.74-1.52,1.6
		c-0.64-0.07-1.3-0.06-1.95,0c-1.15,0.11-1.39-0.45-1.42-1.49c-0.12-4.01-0.15-4-4.2-3.93c-0.13,0-0.26,0.01-0.39,0
		c-1.03-0.12-1.36,0.36-1.35,1.35C62.6,41.34,62.57,43.75,62.57,46.15z M91.24,37.59c-2.01,0-4.03,0.09-6.04-0.03
		c-1.49-0.09-1.88,0.44-1.86,1.87c0.05,3.54-0.02,3.6,3.51,3.65c1.24,0.02,1.55,0.46,1.5,1.6c-0.08,1.95-0.02,3.9-0.02,5.84
		c0,4.17,0,4.14,4.24,3.92c1.03-0.05,1.34-0.41,1.32-1.39c-0.04-2.73,0.05-5.46-0.04-8.18c-0.04-1.31,0.27-1.82,1.7-1.8
		c3.29,0.05,3.29-0.03,3.28-3.41c0-0.26-0.03-0.52,0-0.78c0.14-1.07-0.4-1.33-1.37-1.31C95.4,37.62,93.32,37.59,91.24,37.59z
		 M130.61,54.42c1.04,0,2.08,0,3.12,0c4.23,0,4.2,0,3.87-4.31c-0.07-0.92-0.38-1.25-1.29-1.22c-1.69,0.04-3.38-0.07-5.06,0.04
		c-1.33,0.09-1.67-0.43-1.6-1.66c0.09-1.75,0.02-3.51,0.02-5.26c0-4.74,0-4.7-4.69-4.44c-1.05,0.06-1.32,0.46-1.31,1.41
		c0.03,4.68,0.04,9.35-0.01,14.03c-0.01,1.13,0.43,1.47,1.5,1.43C126.97,54.37,128.79,54.42,130.61,54.42z"/>
		<path fill="#F0662B" d="M199.64,186.35c0-1.42-0.01-2.84-0.01-4.25c0-54.97,0-109.93,0-164.9c0-0.91,0.01-1.82,0.02-2.73
		c0.13,0,0.25,0.02,0.37,0.05c0,57.28,0,114.55,0,171.83C199.89,186.34,199.76,186.35,199.64,186.35z"/>
		<path fill="#F0662B" d="M183.61,0.07c-0.76,0.5-1.63,0.39-2.47,0.39c-54.07,0-108.14,0-162.21,0c-0.84,0-1.7,0.1-2.47-0.39
		C72.18,0.07,127.9,0.07,183.61,0.07z"/>
		<path fill="#F0662B" d="M0.07,16.47c0.5,0.76,0.39,1.63,0.39,2.47c0,54.07,0,108.14,0,162.21c0,0.84,0.1,1.7-0.39,2.47
		C0.07,127.9,0.07,72.18,0.07,16.47z"/>
		<path fill="#F0662B" d="M100.09,79.33c9.04,0,18.09,0.05,27.13-0.04c1.74-0.02,1.9,0.63,1.63,2.04c-0.53,2.74-1.16,5.48-1.39,8.25
		c-0.17,1.97-1.03,2.23-2.73,2.22c-12.82-0.06-25.64-0.03-38.45-0.03c-0.46,0-0.91,0.03-1.37-0.01c-1.13-0.09-1.54,0.27-1.18,1.45
		c0.49,1.62,0.97,3.25,1.23,4.92c0.24,1.53,0.91,1.96,2.44,1.95c11.19-0.07,22.38-0.04,33.57-0.04c4,0,4.01,0,3.58,3.91
		c-1.14,10.41-2.3,20.81-3.4,31.22c-0.17,1.63-0.71,2.58-2.42,3.22c-5.66,2.09-11.24,4.42-16.83,6.72c-1.22,0.5-2.27,0.57-3.53,0.05
		c-5.83-2.4-11.68-4.74-17.56-7.02c-1.12-0.43-1.62-1.09-1.84-2.21c-0.85-4.47-1.7-8.94-2.67-13.39c-0.31-1.41,0.13-1.67,1.41-1.64
		c2.8,0.07,5.6,0.06,8.39,0c1.11-0.02,1.57,0.38,1.86,1.48c0.6,2.31,0.42,5.17,2.05,6.76c1.55,1.52,4.26,1.77,6.33,2.85
		c2.58,1.35,4.97,1.38,7.53-0.03c1.41-0.78,2.95-1.4,4.51-1.82c1.72-0.46,2.32-1.45,2.5-3.14c0.46-4.39,1.03-8.77,1.64-13.14
		c0.24-1.71-0.88-1.38-1.8-1.38c-11-0.01-21.99-0.07-32.99,0.05c-2.1,0.02-2.72-0.61-2.95-2.64c-1.09-9.55-2.33-19.08-3.56-28.61
		c-0.19-1.46,0.11-2.01,1.76-2C82,79.37,91.04,79.33,100.09,79.33z"/>
	</g>
</svg>
