<svg xmlns="http://www.w3.org/2000/svg" x="0px" y="0px" viewBox="0 0 386 386">
	<g>
		<path d="M385.59,78.4c-2.9,9.53-8.75,16.13-18.74,18.44c-1.92,0.44-3.96,0.51-5.94,0.51c-111.55,0.02-223.09,0.03-334.64,0.01
		c-12.29,0-20.02-6-24.68-18.97c0-19.46,0-38.92,0-58.39c2.79-9.7,9.04-15.92,18.75-18.71c115.5,0,231,0,346.5,0
		c9.71,2.78,15.95,9.03,18.75,18.71C385.59,39.48,385.59,58.94,385.59,78.4z M193.59,80.57c54.48,0,108.96,0,163.45,0
		c1.62,0,3.25,0.04,4.87-0.06c4.2-0.27,6.96-2.69,6.99-6.8c0.12-16.34,0.12-32.67,0-49.01c-0.03-3.96-2.7-6.44-6.63-6.76
		c-1.62-0.13-3.25-0.09-4.87-0.09c-109.21,0-218.43,0-327.64,0c-1.5,0-3-0.04-4.5,0.06c-4.34,0.28-6.99,2.78-7.02,7.17
		c-0.1,16.09-0.1,32.18,0,48.26c0.03,4.39,2.68,6.89,7.03,7.16c1.62,0.1,3.25,0.06,4.87,0.06C84.63,80.57,139.11,80.57,193.59,80.57
		z"/>
		<path d="M1.59,307.45c2.89-9.54,8.75-16.12,18.73-18.44c1.92-0.45,3.96-0.51,5.94-0.51c111.55-0.02,223.1-0.03,334.65-0.01
		c12.29,0,19.98,5.96,24.68,18.97c0,19.46,0,38.92,0,58.39c-4.71,13.01-12.39,18.97-24.68,18.97
		c-111.55,0.01-223.09,0.01-334.64-0.01c-1.98,0-4.02-0.07-5.94-0.51c-9.98-2.33-15.85-8.9-18.74-18.44
		C1.59,346.38,1.59,326.91,1.59,307.45z M193.58,305.28c-34.99,0-69.98,0-104.97,0c-20.12,0-40.24-0.01-60.36,0
		c-8.15,0.01-10.08,1.97-10.09,10.22c-0.01,5.49-0.01,10.97,0,16.46c0.01,9.48-0.06,18.96,0.06,28.43c0.06,4.83,2.64,7.33,7.42,7.56
		c1.37,0.07,2.75,0.04,4.12,0.04c109.21,0,218.43,0,327.64,0c1.5,0,3,0.04,4.5-0.06c4.34-0.28,6.99-2.78,7.02-7.17
		c0.1-16.09,0.1-32.18,0-48.26c-0.03-4.39-2.68-6.89-7.03-7.16c-1.62-0.1-3.25-0.06-4.87-0.06
		C302.55,305.28,248.07,305.28,193.58,305.28z"/>
		<path d="M385.59,222.12c-2.9,9.53-8.75,16.12-18.74,18.44c-1.8,0.42-3.71,0.51-5.57,0.51c-31.73,0.03-63.46,0.05-95.19,0.01
		c-14.46-0.02-24.72-10.31-24.75-24.79c-0.04-15.58-0.04-31.17,0-46.75c0.03-14.49,10.28-24.76,24.76-24.77
		c30.86-0.03,61.72,0.3,92.57-0.15c13.85-0.2,23.57,7.17,26.93,19.12C385.59,183.2,385.59,202.66,385.59,222.12z M313.98,161.57
		c-15.61,0-31.23-0.03-46.84,0.01c-6.53,0.02-8.94,2.34-8.96,8.7c-0.05,15.08-0.05,30.17,0,45.25c0.02,6.37,2.43,8.74,8.92,8.74
		c30.98,0.03,61.95,0.03,92.93,0c6.63-0.01,8.95-2.37,8.97-9.08c0.04-14.83,0.04-29.67,0-44.5c-0.02-6.86-2.32-9.1-9.31-9.12
		C344.46,161.55,329.22,161.57,313.98,161.57z"/>
		<path d="M1.59,165.98c2.23-4.03,5.65-5.49,10.24-5.49c62.49,0.08,124.99,0.05,187.49,0.04c2.14,0,4.25,0.07,6.2,1.12
		c2.92,1.57,4.41,4.12,4.41,7.31c0,3.19-1.49,5.74-4.41,7.32c-2.07,1.12-4.31,1.12-6.57,1.12c-62.25-0.01-124.49-0.03-186.74,0.05
		c-4.69,0.01-8.32-1.27-10.62-5.49C1.59,169.97,1.59,167.98,1.59,165.98z"/>
		<path d="M1.59,213.89c2.23-4.03,5.65-5.49,10.24-5.49c62.49,0.08,124.99,0.05,187.49,0.04c2.14,0,4.25,0.07,6.2,1.12
		c2.92,1.57,4.41,4.12,4.41,7.31c0,3.19-1.49,5.74-4.41,7.32c-2.07,1.12-4.31,1.12-6.57,1.12c-62.25-0.01-124.49-0.03-186.74,0.05
		c-4.69,0.01-8.32-1.27-10.62-5.49C1.59,217.88,1.59,215.88,1.59,213.89z"/>
	</g>
</svg>
