<svg xmlns="http://www.w3.org/2000/svg" x="0px" y="0px" viewBox="0 0 200 200" style="enable-background:new 0 0 200 200;">
	<g>
		<g>
			<path fill="#F6DE1E" d="M0.05,176.52c0-51.01,0-102.03,0-153.04c1.09-0.35,1.06-1.41,1.33-2.21C4.82,10.85,11.88,4.21,22.32,1.04
			c0.7-0.21,1.62-0.03,1.94-0.99c50.49,0,100.99,0,151.48,0c0.24,0.78,0.95,0.73,1.55,0.9c11.27,3.23,18.51,10.49,21.75,21.75
			c0.17,0.6,0.13,1.31,0.91,1.55c0,50.75,0,101.51,0,152.26c-1.09,0.34-1.06,1.41-1.33,2.21c-3.51,10.56-10.67,17.26-21.32,20.31
			c-0.6,0.17-1.31,0.13-1.56,0.91c-50.75,0-101.51,0-152.26,0c-0.26-0.94-1.14-0.99-1.84-1.21c-10.29-3.3-17.07-10.08-20.38-20.37
			C1.03,177.67,0.99,176.78,0.05,176.52z M144.85,172.63c3.16,0.12,6.25-0.27,9.32-0.85c11.85-2.24,19.74-9.48,21.83-20
			c2.37-11.88-1.82-21.77-12.12-28.56c-4.8-3.16-10.03-5.46-15.3-7.68c-3.47-1.46-7.01-2.81-10.02-5.15c-3.12-2.43-4.14-5.65-3-9.37
			c1.12-3.67,3.96-5.34,7.63-5.65c4.82-0.4,8.81,1.33,11.29,5.48c1.52,2.55,2.71,2.28,4.74,0.77c2.71-2.01,5.56-3.87,8.51-5.5
			c2.45-1.36,2.93-2.49,1.21-5.02c-6.88-10.14-16.8-12.97-28.25-12.03c-11.75,0.96-20.42,8-23.11,18.38
			c-2.91,11.23,1.14,21.97,10.82,28.7c3.43,2.39,7.19,4.15,10.99,5.86c4.14,1.87,8.36,3.61,12.35,5.76
			c4.87,2.62,6.75,6.3,5.87,10.37c-0.83,3.86-4.44,6.7-9.54,7.39c-8.38,1.14-15.15-1.62-19.91-8.66c-1.33-1.97-2.28-2.2-4.24-0.92
			c-3.26,2.12-6.63,4.14-10.15,5.79c-2.93,1.37-2.54,2.76-1.06,4.96C120.43,168.13,131.68,172.3,144.85,172.63z M101.18,114.8
			c0-10.54-0.09-21.07,0.06-31.61c0.04-2.91-0.48-4.25-3.78-3.97c-3.74,0.32-7.56,0.31-11.3,0c-3.24-0.27-3.82,0.98-3.8,3.93
			c0.12,19.64,0.08,39.28,0.04,58.92c0,2.2-0.07,4.44-0.43,6.61c-0.7,4.22-3.09,6.29-7.26,6.95c-6.22,0.99-10.24-1.99-12.97-7.14
			c-1.11-2.09-2.14-2.35-4.16-1.09c-3.08,1.92-6.3,3.67-9.61,5.15c-2.72,1.21-2.92,2.38-1.39,4.91
			c7.04,11.63,21.2,16.75,36.31,12.79c9.11-2.38,14.83-8.18,17.18-17.32c0.91-3.56,1.1-7.19,1.11-10.84
			C101.2,133.01,101.18,123.9,101.18,114.8z"/>
			<path fill="#030300" d="M144.85,172.63c-13.17-0.33-24.42-4.5-32.13-15.93c-1.48-2.2-1.87-3.59,1.06-4.96
			c3.52-1.64,6.89-3.67,10.15-5.79c1.97-1.28,2.91-1.05,4.24,0.92c4.76,7.04,11.53,9.8,19.91,8.66c5.1-0.69,8.71-3.53,9.54-7.39
			c0.88-4.08-1.01-7.75-5.87-10.37c-3.99-2.15-8.21-3.89-12.35-5.76c-3.79-1.71-7.55-3.48-10.99-5.86
			c-9.68-6.73-13.74-17.46-10.82-28.7c2.69-10.38,11.36-17.42,23.11-18.38c11.45-0.94,21.37,1.88,28.25,12.03
			c1.72,2.53,1.23,3.67-1.21,5.02c-2.95,1.63-5.8,3.49-8.51,5.5c-2.04,1.51-3.22,1.78-4.74-0.77c-2.48-4.14-6.47-5.88-11.29-5.48
			c-3.68,0.31-6.52,1.98-7.63,5.65c-1.14,3.72-0.12,6.94,3,9.37c3.01,2.34,6.55,3.69,10.02,5.15c5.27,2.22,10.5,4.52,15.3,7.68
			c10.3,6.79,14.49,16.68,12.12,28.56c-2.09,10.52-9.98,17.77-21.83,20C151.1,172.37,148.01,172.76,144.85,172.63z"/>
			<path fill="#030300" d="M101.18,114.8c0,9.1,0.01,18.21-0.01,27.31c-0.01,3.64-0.2,7.27-1.11,10.84
			c-2.35,9.14-8.07,14.94-17.18,17.32c-15.11,3.95-29.27-1.16-36.31-12.79c-1.53-2.53-1.33-3.7,1.39-4.91
			c3.31-1.48,6.53-3.23,9.61-5.15c2.03-1.26,3.05-1,4.16,1.09c2.74,5.15,6.76,8.13,12.97,7.14c4.17-0.66,6.56-2.73,7.26-6.95
			c0.36-2.17,0.43-4.4,0.43-6.61c0.03-19.64,0.08-39.28-0.04-58.92c-0.02-2.95,0.57-4.2,3.8-3.93c3.75,0.31,7.56,0.32,11.3,0
			c3.3-0.28,3.82,1.06,3.78,3.97C101.09,93.72,101.18,104.26,101.18,114.8z"/>
		</g>
	</g>
</svg>
