<svg xmlns="http://www.w3.org/2000/svg" x="0px" y="0px" viewBox="0 0 387 387">
	<g>
		<path d="M350.2,97.31c2.95,0,5.05-0.02,7.14,0c13.05,0.17,23.63,10.56,23.64,23.59c0.06,60.25,0.06,120.5,0,180.75
		c-0.01,13.22-10.59,23.68-23.9,23.7c-39.29,0.06-78.59,0.02-117.88,0.03c-5.28,0-5.29,0.01-3.59,5.1
		c1.69,5.09,3.48,10.14,5.04,15.27c0.7,2.31,1.95,3.15,4.33,3.09c5.11-0.13,10.23-0.09,15.34-0.01c4.66,0.07,6.78,2.26,6.9,6.95
		c0.05,1.99,0.01,3.99,0.02,5.99c0.01,4.99,0.01,5,4.85,5c17.34,0,34.68,0,52.02,0.01c1.25,0,2.51-0.07,3.74,0.11
		c3.19,0.45,5.32,3.03,5.21,6.27c-0.11,3.32-1.9,5.34-5.11,5.98c-1.2,0.24-2.49,0.13-3.73,0.13c-86.07,0-172.14,0-258.22,0
		c-1.25,0-2.51,0.07-3.73-0.12c-3.16-0.49-5.26-3.13-5.1-6.37c0.17-3.31,1.99-5.3,5.22-5.88c1.21-0.22,2.49-0.11,3.73-0.11
		c17.34-0.01,34.68,0,52.02-0.01c4.84,0,4.84-0.01,4.85-5c0-2-0.03-3.99,0.02-5.99c0.12-4.69,2.23-6.88,6.9-6.95
		c5.24-0.08,10.48-0.08,15.72,0c2.06,0.03,3.19-0.72,3.83-2.72c1.88-5.94,3.87-11.85,5.91-17.74c0.74-2.12,0.25-3.1-2.07-2.99
		c-1,0.05-2,0-2.99,0c-38.42,0-76.84,0.01-115.26,0c-15.95-0.01-25.81-9.92-25.81-25.96c-0.01-58.75-0.01-117.51,0-176.26
		c0-15.99,9.89-25.84,25.91-25.85c11.98-0.01,23.95-0.09,35.93,0.05c3.06,0.04,4.13-0.87,4.09-4.02c-0.15-12.1-0.08-24.2-0.05-36.3
		c0.02-5.61,2.06-7.61,7.72-7.64c6.74-0.03,13.47-0.02,20.21-0.01c6.69,0.01,8.5,1.78,8.51,8.36c0.02,11.73-0.01,23.45,0.02,35.18
		c0.01,1.99-0.72,4.47,2.84,4.39c3.32-0.07,2.58-2.41,2.59-4.26c0.03-25.57,0.02-51.14,0.02-76.72c0-7.19,1.65-8.86,8.75-8.87
		c6.74-0.01,13.47-0.03,20.21,0.01c5.38,0.03,7.48,2.1,7.48,7.5c0.03,26.07,0,52.14,0.05,78.21c0,1.56-0.8,3.69,1.96,4.08
		c3.01,0.42,3.51-1.15,3.5-3.73c-0.07-17.71-0.04-35.43-0.03-53.14c0-7.38,1.61-8.97,9.02-8.98c6.24-0.01,12.47-0.01,18.71,0
		c7.07,0.01,8.72,1.69,8.72,8.9c0.01,17.59,0.08,35.18-0.06,52.77c-0.03,3.26,0.91,4.29,4.23,4.27c21.33-0.13,42.66-0.06,63.99-0.09
		c1.08,0,2.53,0.53,3.16-0.47c0.75-1.19-0.76-1.93-1.36-2.76c-24.47-33.43-4.95-80.66,36.14-86.2
		c35.52-4.79,61.38,23.15,61.61,52.66c0.1,12.72-3.61,24.03-11.16,34.18C351.5,95.28,351.13,95.91,350.2,97.31z M194.88,276.95
		c56.39,0,112.77-0.02,169.16,0.06c3.27,0,4.57-0.67,4.56-4.31c-0.12-49.65-0.07-99.3-0.09-148.95c0-9.19-4.71-13.88-13.83-13.94
		c-5.49-0.03-10.98,0.06-16.47-0.04c-2.68-0.05-5.13,0.46-7.6,1.52c-14.78,6.35-29.57,6.08-44.28-0.29
		c-1.63-0.7-3.22-1.22-5.02-1.22c-27.44,0.03-54.89,0.05-82.33-0.03c-2.8-0.01-3.66,0.94-3.64,3.69c0.11,13.35,0.05,26.7,0.04,40.04
		c0,1.97-0.11,3.75,2.78,3.73c2.96-0.02,2.68-1.92,2.68-3.82c0-10.23-0.03-20.46,0.02-30.69c0.02-5.36,2.12-7.4,7.54-7.44
		c6.99-0.04,13.97-0.03,20.96,0c5.92,0.02,7.92,1.97,7.93,7.81c0.03,12.85,0.02,25.7,0,38.55c-0.01,6.1-1.95,8.05-8.07,8.05
		c-17.09,0.02-34.18,0.01-51.27,0.01c-45.53,0-91.06,0-136.6-0.01c-6.21,0-8.16-1.89-8.17-7.94c-0.02-13.1-0.04-26.2,0.01-39.3
		c0.02-4.93,2.18-7.11,7.06-7.15c7.23-0.06,14.47-0.05,21.71-0.01c5.61,0.03,7.64,2.06,7.66,7.7c0.03,10.23,0.02,20.46,0.01,30.69
		c0,1.82-0.09,3.48,2.58,3.55c2.81,0.07,2.91-1.56,2.9-3.62c-0.03-13.35-0.1-26.7,0.05-40.04c0.03-3.03-1.04-3.84-3.92-3.8
		c-11.48,0.13-22.95,0.05-34.43,0.05c-10.69,0.01-15.07,4.35-15.07,14.95c-0.01,49.03,0,98.05,0,147.08c0,5.11,0.01,5.11,5.12,5.11
		C82.86,276.95,138.87,276.95,194.88,276.95z M195.4,289.45c-55.87,0-111.73,0-167.6,0c-1.12,0-2.25,0.05-3.37,0
		c-1.88-0.08-2.75,0.74-2.71,2.66c0.07,3.12-0.16,6.25,0.11,9.35c0.56,6.52,5.18,10.89,11.77,11.37c1.49,0.11,2.99,0.05,4.49,0.05
		c104,0,208-0.11,312,0.14c14.16,0.03,19.32-4.59,18.47-18.47c-0.31-5.07-0.06-5.09-5.2-5.09
		C307.38,289.45,251.39,289.45,195.4,289.45z M140.96,88.41c0-21.46-0.05-42.92,0.05-64.37c0.01-3.01-0.78-4.51-3.98-4.08
		c-0.74,0.1-1.5,0.01-2.24,0.01c-5.27,0.01-5.28,0.01-5.28,5.33c0,41.67-0.01,83.34,0.01,125c0,7.74-0.95,6.64,7.09,6.94
		c3.51,0.13,4.44-1.05,4.42-4.46C140.9,131.33,140.96,109.87,140.96,88.41z M330.44,67.88c-5.23,0-10.46,0.07-15.69-0.04
		c-2.15-0.04-3.76,0.6-5.29,2.15c-7.52,7.63-15.07,15.23-22.74,22.7c-2.08,2.02-1.75,3.01,0.57,4.34
		c8.48,4.87,17.43,6.81,27.23,5.67c16.32-1.89,31.5-15.58,34.8-31.7c0.49-2.39-0.04-3.18-2.44-3.14
		C341.4,67.94,335.92,67.89,330.44,67.88z M302.65,40.47c0-5.35-0.14-10.72,0.05-16.06c0.12-3.19-0.89-3.77-3.91-3.04
		c-26.85,6.47-39.99,38.57-25.3,61.9c1.42,2.26,2.35,2.61,4.35,0.54c7.47-7.68,15.07-15.22,22.7-22.74
		c1.55-1.52,2.19-3.14,2.14-5.29C302.57,50.69,302.65,45.58,302.65,40.47z M194.82,348.81c9.86,0,19.71-0.09,29.56,0.05
		c3.14,0.05,3.64-0.99,2.65-3.74c-1.97-5.52-3.84-11.07-5.58-16.67c-0.71-2.29-1.93-3.12-4.32-3.1c-14.6,0.08-29.19,0.11-43.79-0.02
		c-2.81-0.03-3.98,1.12-4.74,3.6c-1.61,5.24-3.44,10.42-5.16,15.63c-1.37,4.14-1.31,4.24,2.93,4.25
		C175.85,348.82,185.34,348.81,194.82,348.81z M182.88,100.56c0-17.59-0.05-35.18,0.05-52.77c0.02-2.88-0.79-4.27-3.81-3.87
		c-0.86,0.11-1.74,0.01-2.62,0.02c-5.06,0.01-5.07,0.01-5.07,5.16c0,33.68-0.02,67.37,0.01,101.05c0.01,7.88-0.97,6.79,6.93,7.11
		c3.69,0.15,4.62-1.14,4.59-4.68C182.79,135.24,182.88,117.9,182.88,100.56z M87.6,109.54c0,14.6,0.06,29.19-0.05,43.79
		c-0.02,2.89,0.79,4.27,3.81,3.87c0.86-0.11,1.74-0.01,2.62-0.02c5.06-0.01,5.07-0.01,5.07-5.16c0-27.7,0.02-55.39-0.01-83.09
		c-0.01-7.88,0.97-6.79-6.93-7.11c-3.69-0.15-4.63,1.13-4.59,4.68C87.7,80.84,87.6,95.19,87.6,109.54z M332.57,55.38
		c4.74,0,9.47-0.06,14.2,0.02c2.26,0.04,3.06-0.52,2.56-3.05c-2.92-14.63-16.43-28.17-31.09-31.13c-2.44-0.49-3.13,0.13-3.11,2.49
		c0.06,9.47,0.08,18.94-0.01,28.41c-0.02,2.39,0.79,3.37,3.25,3.3C323.1,55.29,327.84,55.38,332.57,55.38z M195.27,366.77
		c18.57,0,37.13-0.05,55.7,0.05c2.93,0.02,4.34-0.88,3.67-3.86c-0.58-2.57-2.8-1.61-4.34-1.61c-36.76-0.05-73.52-0.04-110.28-0.04
		c-0.62,0-1.25,0.04-1.87,0c-2.25-0.14-2.7,1.15-2.65,3.07c0.09,3.07,2.35,2.37,4.07,2.37
		C158.14,366.78,176.71,366.77,195.27,366.77z M57.13,142.48c0-2.25,0.04-4.49-0.01-6.74c-0.19-9.05,1.67-7.83-8.24-8
		c-2.47-0.04-3.27,0.94-3.23,3.32c0.1,6.11-0.05,12.23,0.05,18.34c0.14,8.8-1.78,7.68,8.42,7.81c2.29,0.03,3.09-0.91,3.04-3.12
		C57.05,150.21,57.12,146.34,57.13,142.48z M224.8,142.48c0-2.25,0.04-4.49-0.01-6.74c-0.19-9.05,1.68-7.83-8.24-8.01
		c-2.47-0.04-3.28,0.93-3.24,3.32c0.1,6.11-0.05,12.23,0.05,18.34c0.14,8.81-1.78,7.68,8.41,7.81c2.29,0.03,3.1-0.91,3.04-3.12
		C224.72,150.22,224.8,146.35,224.8,142.48z M111.55,133.5c0,6.72,0.01,13.44,0,20.15c0,1.81-0.11,3.48,2.56,3.56
		c2.78,0.08,2.93-1.5,2.92-3.58c-0.03-13.44-0.02-26.87-0.01-40.31c0-1.81,0.11-3.48-2.56-3.56c-2.78-0.08-2.94,1.5-2.92,3.58
		C111.58,120.07,111.55,126.79,111.55,133.5z M158.93,133.8c0-6.84-0.01-13.68,0.01-20.53c0.01-1.85,0.02-3.47-2.62-3.5
		c-2.45-0.03-2.87,1.21-2.87,3.26c0.04,13.68,0.03,27.37,0.01,41.05c0,1.86,0.34,3.08,2.62,3.12c2.46,0.05,2.89-1.21,2.87-3.26
		C158.89,147.23,158.93,140.51,158.93,133.8z"/>
		<path d="M33.18,223.49c-0.03-8.8,5.57-16.07,13.92-18.06c8.46-2.02,17.1,2.06,20.79,10.11c1.07,2.32,2.42,3.8,4.79,4.78
		c18.21,7.5,36.39,15.08,54.54,22.74c2.59,1.09,4.11,0.76,5.98-1.51c6.79-8.21,18.92-8.93,26.57-1.51c2.4,2.33,3.79,2.04,6.18,0.22
		c18.59-14.08,37.26-28.05,55.94-42c1.87-1.4,3.11-3.01,3.95-5.23c2.84-7.49,9.19-11.84,16.91-11.89
		c8.07-0.05,14.34,4.1,17.36,11.75c0.74,1.88,1.84,3.13,3.53,4.11c18.75,10.91,37.52,21.8,56.19,32.85
		c2.72,1.61,4.02,0.69,5.87-1.28c5.57-5.94,14.38-7.22,21.67-3.45c7.13,3.68,11.06,11.96,9.41,19.85
		c-1.61,7.72-8.16,13.75-15.72,14.47c-8.62,0.82-16.02-3.46-19.14-11.29c-0.84-2.11-2.04-3.56-3.97-4.68
		c-18.65-10.83-37.29-21.69-55.89-32.62c-2.33-1.37-3.69-1.22-5.63,0.89c-7.02,7.66-18.64,8.01-26.09,0.75
		c-2.25-2.19-3.59-1.98-5.88-0.25c-18.69,14.15-37.47,28.19-56.24,42.23c-1.74,1.3-3.01,2.75-3.8,4.88
		c-2.76,7.46-8.96,11.93-16.36,12.12c-8.19,0.2-14.46-3.66-17.71-11.24c-0.89-2.07-2.3-3.07-4.21-3.86
		c-18.3-7.6-36.61-15.19-54.87-22.92c-2.71-1.15-4.15-0.47-5.94,1.7c-5.02,6.1-13.32,8.02-20.71,5.19
		C37.66,237.66,33.21,231.1,33.18,223.49z M248.57,199.42c0.04-2.8-2.67-5.59-5.48-5.63c-2.78-0.04-5.57,2.69-5.62,5.5
		c-0.04,2.81,2.66,5.57,5.49,5.61C245.78,204.94,248.52,202.26,248.57,199.42z M51.26,228.89c2.75,0.09,5.54-2.54,5.68-5.34
		c0.14-2.77-2.4-5.57-5.23-5.77c-2.88-0.2-5.86,2.58-5.89,5.5C45.8,226.03,48.48,228.8,51.26,228.89z M338.84,235.71
		c-2.78,0-5.55,2.77-5.55,5.56c0,2.81,2.74,5.55,5.55,5.55c2.82,0,5.54-2.72,5.55-5.55C344.38,238.46,341.64,235.71,338.84,235.71z
		 M147.34,258.8c2.83-0.08,5.5-2.87,5.42-5.67c-0.08-2.82-2.9-5.52-5.67-5.44c-2.81,0.08-5.5,2.9-5.42,5.69
		C141.75,256.21,144.53,258.87,147.34,258.8z"/>
		<path d="M311.84,121.25c8.59,0,17.19-0.03,25.78,0.01c4.87,0.02,7.51,2.35,7.43,6.38c-0.08,3.84-2.7,6.08-7.35,6.09
		c-15.32,0.03-30.64,0.07-45.96-0.03c-2.82-0.02-4.91,0.72-6.91,2.8c-6.22,6.46-12.64,12.72-19,19.05
		c-2.29,2.28-4.96,2.88-7.84,1.38c-2.78-1.45-3.61-3.98-3.1-6.97c0.27-1.55,1.29-2.66,2.36-3.73c7.49-7.49,14.99-14.95,22.44-22.48
		c1.79-1.81,3.82-2.56,6.35-2.53C294.65,121.3,303.25,121.26,311.84,121.25z"/>
		<path d="M72.17,187.65c-10.46,0-20.92,0.02-31.39-0.01c-4.95-0.01-7.57-2.23-7.57-6.25c0-4.01,2.63-6.23,7.58-6.23
		c21.05-0.02,42.1-0.02,63.14,0c4.93,0.01,7.58,2.24,7.57,6.24c0,4-2.65,6.22-7.58,6.24C93.34,187.67,82.75,187.65,72.17,187.65z"/>
		<path d="M269.6,271.48c-6.6,0-13.19,0.05-19.79-0.02c-4.5-0.04-7.1-2.51-7-6.42c0.1-3.73,2.65-6.02,7.01-6.03
		c13.44-0.05,26.88-0.05,40.33,0c4.35,0.01,6.91,2.32,7.01,6.04c0.1,3.9-2.52,6.37-7.02,6.41
		C283.29,271.52,276.44,271.48,269.6,271.48z"/>
		<path d="M281.73,253.49c-2.98,0-5.97,0.11-8.95-0.03c-3.68-0.18-6.04-2.73-6.02-6.23c0.02-3.51,2.38-6.07,6.1-6.15
		c6.09-0.13,12.18-0.14,18.27,0.01c3.68,0.09,6.05,2.72,6.03,6.22c-0.02,3.49-2.4,6-6.1,6.17
		C287.95,253.6,284.83,253.5,281.73,253.49z"/>
		<path d="M126.02,187.56c-1.24,0-2.5,0.14-3.72-0.03c-3.18-0.43-5.28-2.96-5.26-6.19c0.02-3.22,2.13-5.78,5.35-6.09
		c2.34-0.22,4.72-0.19,7.06-0.06c3.66,0.2,6.02,2.75,6,6.24c-0.02,3.49-2.4,5.92-6.09,6.17c-1.11,0.08-2.23,0.01-3.35,0.01
		C126.02,187.6,126.02,187.58,126.02,187.56z"/>
		<path d="M57.75,294.92c5.6,0,11.2-0.05,16.8,0.01c4.51,0.05,7.12,2.49,7.03,6.4c-0.09,3.72-2.65,6.04-6.99,6.06
		c-11.45,0.05-22.9,0.05-34.34,0c-4.5-0.02-7.11-2.49-7.02-6.4c0.09-3.73,2.64-6.01,6.99-6.06
		C46.05,294.87,51.9,294.92,57.75,294.92z"/>
		<path d="M96.33,307.41c-6.48,0-9.32-1.98-9.22-6.42c0.1-4.28,2.82-6.08,9.19-6.08c6.48,0,9.33,1.98,9.23,6.42
		C105.42,305.6,102.68,307.41,96.33,307.41z"/>
	</g>
</svg>
