<svg xmlns="http://www.w3.org/2000/svg" x="0px" y="0px" viewBox="0 0 200 200" style="enable-background:new 0 0 200 200;">
	<g>
		<path d="M121.66,199c-12.94-1.9-23.63-8.89-34.43-15.47c-15.47-9.42-29.37-20.87-41.9-33.96C28.82,132.31,15.4,112.9,4.94,91.43
		C2.87,87.16,1.82,82.59,1,77.96c0-3.74,0-7.48,0-11.21c0.91-4.28,1.81-8.55,3.62-12.59c2.23-5,5.16-9.51,8.95-13.44
		c2.82-2.92,5.69-5.79,8.6-8.62c4.61-4.49,11.07-4.66,15.82-0.26c3.68,3.41,7.19,7.03,10.74,10.57c6.48,6.46,12.93,12.95,19.41,19.4
		c3.04,3.02,4.84,6.48,4.13,10.91c-0.42,2.66-1.75,4.81-3.62,6.67c-4.02,4.01-8.03,8.01-12.03,12.03
		c-3.48,3.51-3.85,6.62-1.17,10.72c1.83,2.8,3.81,5.51,5.74,8.25c1.63,2.31,1.46,4.75-0.45,6.17c-1.99,1.48-4.23,1.07-6.04-1.26
		c-2.6-3.36-5.08-6.83-7.23-10.51c-3.06-5.26-2.45-12.4,1.62-17.2c4-4.72,8.66-8.83,12.99-13.25c2.95-3.01,2.96-4-0.03-7
		c-9.52-9.52-19.05-19.05-28.57-28.57c-2.53-2.53-3.98-2.55-6.48,0c-3.2,3.26-6.67,6.28-9.54,9.86c-4.88,6.1-7.66,13.02-8.33,20.85
		c-0.63,7.49,1.03,14.41,4.41,21.05c10.84,21.31,24.57,40.53,41.56,57.36c16.3,16.14,34.8,29.24,55.42,39.3
		c14.19,6.92,31.5,4.18,42.88-6.75c2.74-2.63,5.41-5.35,8.08-8.05c2.02-2.05,2.02-3.57-0.05-5.64c-9.88-9.9-19.77-19.79-29.67-29.66
		c-2.03-2.03-3.6-2-5.65,0.03c-3.89,3.86-7.73,7.76-11.63,11.61c-6.68,6.61-14.01,7.32-21.83,2.15c-4.25-2.81-8.38-5.78-12.31-9.03
		c-2.16-1.78-2.58-4.03-1.15-5.91c1.49-1.96,3.93-2.21,6.15-0.48c4.02,3.13,8.09,6.18,12.36,8.97c3.79,2.47,7.25,2.17,10.48-1.03
		c4.08-4.03,8.11-8.12,12.18-12.16c5.12-5.08,11.51-5.33,16.66-0.37c7.05,6.8,13.9,13.8,20.84,20.71c3.01,3,6.05,5.98,9.04,9
		c5.76,5.82,5.77,12.19-0.05,17.93c-3.85,3.8-7.42,7.89-11.75,11.18c-6.45,4.9-13.69,7.89-21.69,9.05
		c-0.31,0.05-0.61,0.17-0.92,0.26C128.88,199,125.27,199,121.66,199z"/>
		<path d="M121.27,1c5.6,0.8,11.22,1.55,16.63,3.31c30.7,10,50.31,30.58,58.87,61.7c1.15,4.17,1.55,8.47,2.24,12.72
		c0,3.09,0,6.19,0,9.28c-1.04,1.28-2.19,2.4-4,2.35c-2.14-0.06-3.72-1.7-3.86-4.04c-0.36-6.04-0.74-12.07-2.22-17.98
		c-4.98-19.98-16.12-35.6-33.24-46.95c-10.4-6.89-21.92-10.74-34.3-12.07c-2.3-0.25-4.63-0.37-6.94-0.4
		c-2.23-0.02-3.94-0.71-4.62-2.99c-0.66-2.22,0.55-3.68,2.16-4.93C115.08,1,118.18,1,121.27,1z"/>
		<path d="M175.89,84.03c0,0.84,0.06,1.68-0.01,2.51c-0.19,2.14-1.9,3.79-3.91,3.83c-1.95,0.05-3.73-1.36-4.03-3.45
		c-0.53-3.62-0.46-7.3-1.12-10.93c-4.09-22.31-23.4-40.56-45.8-43.26c-2.31-0.28-4.63-0.23-6.93-0.49c-2.88-0.33-4.6-2.04-4.46-4.35
		c0.15-2.38,1.98-3.85,4.91-3.8c15.01,0.23,28.26,5.24,39.63,14.99c11.93,10.23,18.91,23.26,21.21,38.79
		c0.3,2.03,0.41,4.1,0.61,6.14C175.96,84.02,175.93,84.02,175.89,84.03z"/>
		<path d="M152.76,85.02c0.41,4.12-3.18,6.34-5.94,4.9c-1.83-0.96-2.35-2.62-2.4-4.53c-0.23-8.86-3.75-16.21-10.29-22.1
		c-5.36-4.82-11.69-7.42-18.92-7.69c-3.62-0.14-5.6-1.62-5.59-4.25c0.02-2.64,2.2-4.12,5.9-4.02c18.4,0.52,34.82,15.71,36.82,34.06
		C152.47,82.59,152.62,83.81,152.76,85.02z"/>
		<path d="M114.42,70.56c7.91,0.27,14.85,7.24,15.02,15.1c0.06,2.57-1.56,4.53-3.87,4.69c-2.19,0.16-3.99-1.51-4.34-4.03
		c-0.7-5.02-2.48-6.78-7.63-7.56c-2.49-0.38-4.15-2.23-3.94-4.41C109.87,72.04,111.85,70.48,114.42,70.56z"/>
		<path d="M69.58,122.49c2.15,0.01,4.11,1.94,4.12,4.04c0.01,2.14-1.91,4.08-4.06,4.09c-2.14,0.01-4.11-1.92-4.11-4.04
		C65.54,124.44,67.48,122.48,69.58,122.49z"/>
	</g>
</svg>
