<svg xmlns="http://www.w3.org/2000/svg" x="0px" y="0px" viewBox="0 0 200 200" style="enable-background:new 0 0 200 200;">
	<g>
		<path fill="#001833" d="M200.12,35.65c0,42.83,0,85.66,0,128.49c-0.11,0.29-0.16,0.6-0.16,0.91c-0.02,2.11-0.45,4.15-0.98,6.18
		c-3.68,13.89-15.6,24.45-30.3,26.06c-0.88-0.06-1.73,0.28-2.61,0.16c-43.89,0-87.79,0-131.68,0c-0.88,0.12-1.73-0.22-2.61-0.17
		c-1.16-0.13-2.32-0.32-3.46-0.56c-14.48-3.07-25.52-14.82-27.66-29.43c-0.15-1.05-0.13-2.14-0.53-3.16c0-42.39,0-84.77,0-127.16
		c-0.02-0.77,0.38-1.49,0.29-2.27c0.12-1.04,0.23-2.08,0.43-3.1c2.49-12.2,9.41-20.89,20.7-26.09c3.75-1.73,7.74-2.57,11.84-2.89
		c0.46-0.03,0.91-0.06,1.37-0.1c44.08,0,88.17,0,132.25,0c0.14,0.17,0.34,0.14,0.53,0.15c1.24,0.08,2.47,0.23,3.67,0.48
		c11.36,2.32,19.79,8.6,25.16,18.88c2.12,4.06,3.38,8.39,3.59,13C199.97,35.24,199.91,35.48,200.12,35.65z M45.23,96.38
		c0,14.02,0,28.04,0,42.06c0,0.35-0.02,0.7,0.03,1.05c0.07,0.54,0.33,0.78,0.86,0.84c0.25,0.03,0.51,0.01,0.76,0.02
		c4.92,0,9.83,0,14.75,0c0.22,0,0.45,0.01,0.67-0.01c0.63-0.07,0.96-0.4,1.01-1.04c0.02-0.25,0.01-0.51,0.01-0.76
		c0-8.22,0-16.43,0-24.65c0-0.22,0-0.44,0-0.67c0.02-0.74,0.02-0.76,0.73-0.76c0.86,0,1.71,0.03,2.57,0.06
		c5.17,0.16,10.33,0.14,15.46-0.73c3.92-0.67,7.74-1.71,11.27-3.59c5.54-2.96,9.78-7.2,12.36-12.98c1.42-3.19,2.09-6.56,2.38-10.03
		c0.42-4.91-0.1-9.7-1.86-14.31c-2.81-7.38-8.1-12.37-15.28-15.44c-5.33-2.27-10.94-3.13-16.69-3.25
		c-3.52-0.07-7.04-0.03-10.56,0.04c-5.58,0.12-11.16,0.27-16.74,0.38c-1.65,0.03-1.72,0.08-1.72,1.71
		C45.23,68.34,45.23,82.36,45.23,96.38z M117.13,129.64c0,2.35,0.01,4.69-0.01,7.04c-0.01,0.7,0.22,1.24,0.82,1.6
		c0.24,0.15,0.51,0.26,0.77,0.37c4.34,1.95,8.95,2.74,13.63,3.2c3.45,0.34,6.9,0.34,10.35,0.03c3.91-0.35,7.71-1.19,11.26-2.89
		c8.62-4.12,12.82-12.3,11.26-21.77c-0.85-5.17-3.85-8.96-8.17-11.74c-3.61-2.32-7.46-4.19-11.5-5.64c-2.51-0.9-4.92-2.03-7.29-3.25
		c-1.02-0.53-1.94-1.21-2.69-2.09c-1.12-1.32-1.25-2.95-0.36-4.41c0.56-0.91,1.41-1.44,2.41-1.73c1.5-0.44,3.04-0.67,4.6-0.67
		c3.75,0,7.46,0.46,11.11,1.36c2.32,0.57,4.53,1.4,6.67,2.47c1.33,0.67,2.09,0.17,2.09-1.28c0-4.22,0-8.44,0-12.66
		c0-0.22,0-0.44-0.02-0.67c-0.05-0.73-0.39-1.23-1.1-1.51c-1.1-0.42-2.2-0.81-3.33-1.11c-2.52-0.68-5.1-0.97-7.69-1.2
		c-4.5-0.41-8.99-0.47-13.46,0.24c-3.87,0.62-7.47,1.95-10.72,4.17c-7.35,5.04-9.8,13.62-7.84,21.06c1.22,4.64,4.15,8.07,8.03,10.73
		c3.38,2.33,7.05,4.13,10.9,5.55c2.38,0.88,4.73,1.82,6.97,3.02c0.99,0.52,1.9,1.14,2.65,1.99c0.44,0.51,0.81,1.05,0.96,1.72
		c0.36,1.61-0.47,3.33-2.02,4.13c-1.38,0.71-2.87,0.99-4.39,1.11c-5.75,0.46-11.3-0.51-16.72-2.37c-2.04-0.7-3.98-1.64-5.86-2.71
		c-0.91-0.51-1.26-0.29-1.3,0.76c-0.01,0.19,0,0.38,0,0.57C117.13,125.26,117.13,127.45,117.13,129.64z"/>
		<path fill="#2DA9FE" d="M0.12,34.5c0.1,0.07,0.19,0.13,0.29,0.2c0.09,0.78-0.3,1.5-0.29,2.27C0.12,36.15,0.12,35.33,0.12,34.5z"/>
		<path fill="#2DA9FE" d="M31.52,197.45c0.08-0.06,0.16-0.11,0.24-0.17c0.88-0.05,1.73,0.29,2.61,0.17
		C33.42,197.45,32.47,197.45,31.52,197.45z"/>
		<path fill="#2DA9FE" d="M168.67,197.29c0.08,0.05,0.16,0.11,0.24,0.16c-0.95,0-1.9,0-2.85,0
		C166.94,197.57,167.79,197.23,168.67,197.29z"/>
		<path fill="#2DA9FE" d="M33.38,2.62c-0.05-0.03-0.1-0.06-0.15-0.1c0.51,0,1.01,0,1.52,0C34.29,2.55,33.84,2.59,33.38,2.62z"/>
		<path fill="#2DA9FE" d="M45.23,96.38c0-14.02,0-28.04,0-42.06c0-1.64,0.07-1.68,1.72-1.71c5.58-0.12,11.16-0.26,16.74-0.38
		c3.52-0.08,7.04-0.12,10.56-0.04c5.75,0.12,11.36,0.98,16.69,3.25c7.18,3.07,12.47,8.06,15.28,15.44
		c1.76,4.61,2.28,9.39,1.86,14.31c-0.3,3.47-0.96,6.85-2.38,10.03c-2.58,5.78-6.81,10.02-12.36,12.98
		c-3.53,1.89-7.34,2.93-11.27,3.59c-5.12,0.87-10.29,0.89-15.46,0.73c-0.86-0.03-1.71-0.06-2.57-0.06c-0.71,0-0.71,0.02-0.73,0.76
		c-0.01,0.22,0,0.44,0,0.67c0,8.22,0,16.43,0,24.65c0,0.25,0.01,0.51-0.01,0.76c-0.05,0.64-0.38,0.98-1.01,1.04
		c-0.22,0.02-0.44,0.01-0.67,0.01c-4.92,0-9.83,0-14.75,0c-0.25,0-0.51,0.01-0.76-0.02c-0.53-0.06-0.79-0.3-0.86-0.84
		c-0.04-0.34-0.03-0.7-0.03-1.05C45.23,124.43,45.23,110.41,45.23,96.38z M63.41,82.66c0,4.38,0,8.75,0,13.13
		c0,0.92,0.01,0.9,0.94,0.97c2.12,0.17,4.25,0.12,6.37,0.12c3.48-0.01,6.88-0.51,10.19-1.59c1.87-0.61,3.53-1.55,5.02-2.81
		c1.58-1.34,2.78-2.95,3.39-4.95c0.71-2.34,0.92-4.73,0.62-7.15c-0.59-4.75-3.01-8.2-7.48-10.09c-2.75-1.16-5.63-1.71-8.61-1.72
		c-3.01-0.01-6.02,0.02-9.04,0.04c-0.32,0-0.63,0.03-0.95,0.06c-0.29,0.03-0.46,0.18-0.45,0.49c0.01,0.25,0,0.51,0,0.76
		C63.41,74.16,63.41,78.41,63.41,82.66z"/>
		<path fill="#2DA9FE" d="M117.13,129.64c0-2.19,0-4.38,0-6.57c0-0.19,0-0.38,0-0.57c0.04-1.05,0.39-1.27,1.3-0.76
		c1.88,1.06,3.82,2.01,5.86,2.71c5.42,1.86,10.97,2.83,16.72,2.37c1.52-0.12,3.02-0.4,4.39-1.11c1.55-0.8,2.38-2.52,2.02-4.13
		c-0.15-0.67-0.52-1.22-0.96-1.72c-0.74-0.85-1.66-1.46-2.65-1.99c-2.24-1.19-4.6-2.14-6.97-3.02c-3.85-1.43-7.52-3.23-10.9-5.55
		c-3.87-2.66-6.81-6.09-8.03-10.73c-1.96-7.45,0.49-16.02,7.84-21.06c3.24-2.22,6.84-3.55,10.72-4.17
		c4.48-0.71,8.97-0.65,13.46-0.24c2.59,0.23,5.17,0.52,7.69,1.2c1.13,0.31,2.24,0.69,3.33,1.11c0.71,0.27,1.05,0.78,1.1,1.51
		c0.02,0.22,0.02,0.44,0.02,0.67c0,4.22,0,8.44,0,12.66c0,1.45-0.76,1.95-2.09,1.28c-2.13-1.07-4.35-1.9-6.67-2.47
		c-3.65-0.89-7.35-1.35-11.11-1.36c-1.56,0-3.09,0.23-4.6,0.67c-1.01,0.29-1.86,0.82-2.41,1.73c-0.89,1.46-0.76,3.09,0.36,4.41
		c0.75,0.88,1.66,1.56,2.69,2.09c2.37,1.22,4.77,2.35,7.29,3.25c4.04,1.45,7.89,3.31,11.5,5.64c4.33,2.78,7.32,6.57,8.17,11.74
		c1.56,9.47-2.64,17.65-11.26,21.77c-3.56,1.7-7.35,2.54-11.26,2.89c-3.45,0.31-6.91,0.31-10.35-0.03
		c-4.68-0.46-9.29-1.25-13.63-3.2c-0.26-0.12-0.53-0.23-0.77-0.37c-0.6-0.36-0.83-0.9-0.82-1.6
		C117.14,134.33,117.13,131.98,117.13,129.64z"/>
		<path fill="#001833" d="M63.41,82.66c0-4.25,0-8.5,0-12.75c0-0.25,0.01-0.51,0-0.76c-0.01-0.32,0.16-0.47,0.45-0.49
		c0.32-0.03,0.63-0.06,0.95-0.06c3.01-0.02,6.02-0.05,9.04-0.04c2.98,0.01,5.86,0.56,8.61,1.72c4.47,1.89,6.88,5.33,7.48,10.09
		c0.3,2.42,0.09,4.81-0.62,7.15c-0.61,2-1.81,3.61-3.39,4.95c-1.49,1.27-3.16,2.21-5.02,2.81c-3.32,1.08-6.71,1.59-10.19,1.59
		c-2.12,0.01-4.25,0.05-6.37-0.12c-0.93-0.07-0.94-0.05-0.94-0.97C63.41,91.42,63.41,87.04,63.41,82.66z"/>
	</g>
</svg>
