<svg xmlns="http://www.w3.org/2000/svg" x="0px" y="0px" viewBox="0 0 200 200" style="enable-background:new 0 0 200 200;">
	<g>
		<path d="M160.26,177.05c-0.74-2.09-2.15-2.98-3.25-4.08C106.66,122.58,56.29,72.21,5.91,21.86C3.07,19.02,0.7,16.08,0.8,11.76
		c0.1-4.41,1.92-7.8,5.79-9.87c3.95-2.11,8-1.96,11.78,0.49c1.52,0.99,2.82,2.35,4.12,3.64c50.22,50.19,100.43,100.4,150.61,150.63
		c1.12,1.12,1.9,2.59,3.12,4.27c1.46-2.3,1.09-3.69,1.09-4.97c0.02-36.76,0.01-73.53,0.03-110.29c0-7.56,4.8-12.31,11.96-12.01
		c5.63,0.23,10.19,4.69,10.54,10.35c0.07,1.14,0.04,2.3,0.04,3.45c0,46.3-0.14,92.6,0.13,138.9c0.05,8.53-5.41,13.43-13.21,13.38
		c-46.87-0.26-93.75-0.12-140.62-0.14c-7.72,0-12.62-4.91-12.24-12.13c0.29-5.52,4.61-9.96,10.12-10.36
		c1.37-0.1,2.76-0.05,4.13-0.05c35.85,0,71.69,0,107.54,0C157.09,177.05,158.46,177.05,160.26,177.05z"/>
	</g>
</svg>
