<svg xmlns="http://www.w3.org/2000/svg" x="0px" y="0px" viewBox="0 0 200 200" style="enable-background:new 0 0 200 200;">
	<g>
		<path d="M96.07,199.03c-46.76,0.1-86.11-33.62-93.81-80.31C-6.26,67.12,29.32,17.7,80.9,9.41c22.14-3.56,42.89,0.41,62.34,11.46
		c1.71,0.97,2.79,0.81,4.12-0.56c5.11-5.26,10.31-10.42,15.48-15.63c0.56-0.56,1.11-1.14,1.69-1.68c3.57-3.35,6.62-2.59,8.06,2.06
		c1.44,4.65,2.91,9.29,4.18,13.99c0.59,2.19,1.61,3.47,3.89,4.07c4.51,1.19,8.95,2.64,13.4,4.04c5.75,1.8,6.46,4.62,2.25,8.86
		c-5.29,5.33-10.48,10.76-15.93,15.93c-2.15,2.04-2.51,3.54-1.01,6.26c8.15,14.81,12.09,30.79,11.54,47.7
		c-0.77,23.72-8.91,44.63-24.93,62.2c-15.6,17.12-35,27.05-57.8,30.32c-1.83,0.26-3.67,0.48-5.51,0.56
		C100.48,199.1,98.27,199.03,96.07,199.03z M182.86,102.82c0.18-2.73-0.16-6.35-0.6-9.95c-1.31-10.66-4.46-20.74-9.49-30.22
		c-0.4-0.76-0.74-1.8-1.92-1.28c-1.81,0.8-3.44,0.11-5.12-0.41c-4.63-1.43-9.29-2.73-13.87-4.3c-2.65-0.91-3.65,1.07-4.99,2.44
		c-1.47,1.51,0.23,2.41,0.93,3.32c11.36,14.84,15.98,31.55,13.69,50.12c-4.84,39.22-42.69,65.73-80.92,56.77
		c-32.69-7.66-54.81-38.45-51.39-71.89c1.86-18.17,9.8-33.35,23.82-45.03c14.48-12.07,31.3-17.01,49.94-15.05
		c13.47,1.42,25.44,6.75,35.79,15.63c0.51,0.44,0.92,1.1,1.79,0.86c1.74-0.48,3.51-3.66,2.98-5.46c-1.5-5-3.03-9.99-4.52-15
		c-0.33-1.1-0.91-2.32-0.32-3.36c1.2-2.11-0.13-2.74-1.64-3.54c-17.66-9.39-36.38-12.42-56.02-9.1C34.27,25.3,2.3,70.49,9.92,117.66
		c7.72,47.81,52.6,80.32,100.12,72.53C152.01,183.31,182.79,146.76,182.86,102.82z M95.94,45.24c-3.25,0.12-6.49,0.18-9.73,0.67
		c-31.1,4.76-53.4,36.26-47.69,67.44c7.71,42.09,53.66,62.13,89.45,39.01c27.88-18,34.51-58.66,13.85-84.6
		c-1.3-1.64-2.14-1.58-3.51-0.16c-4.23,4.38-8.53,8.7-12.89,12.97c-1.22,1.19-1.41,2.06-0.41,3.58c5.36,8.14,6.99,17.1,5.24,26.66
		c-3.5,19.17-22.03,31.66-41.63,28.12c-18.6-3.36-31.55-22.38-28.03-41.17c4.91-26.19,34.19-38.19,55.65-22.74
		c1.73,1.24,2.61,0.92,3.92-0.44c4.1-4.27,8.24-8.5,12.52-12.58c1.63-1.56,1.63-2.42-0.13-3.82
		C121.81,49.68,109.7,45.13,95.94,45.24z M97.68,94.55c0.92,0.1,2.28,0.51,3.58-0.89c3.18-3.43,6.52-6.72,9.88-9.98
		c1.3-1.26,1.01-1.9-0.37-2.77c-6.06-3.85-12.58-5.34-19.67-4.09c-13.67,2.42-23.29,14.5-22.49,28.27
		c1.04,18.06,17.14,28.12,31.92,25.72c18-2.92,28.46-24.87,18.98-40.53c-1.12-1.85-1.94-1.86-3.35-0.37
		c-2.67,2.83-5.38,5.61-8.23,8.26c-1.61,1.5-2.22,2.99-2.04,5.29c0.46,5.86-3.79,10.46-9.36,10.56c-5.67,0.11-10-4.31-9.91-10.1
		C86.72,98.28,91.25,94.23,97.68,94.55z M150.55,43.96c4.53-4.56,8.74-8.8,12.95-13.03c6.85-6.89,6.85-6.89,3.7-16.17
		c-0.03-0.08-0.07-0.16-0.09-0.25c-0.34-1.67-0.94-1.85-2.18-0.59c-5.49,5.61-11.05,11.16-16.58,16.72
		c-0.7,0.71-1.38,1.44-1.06,2.54C148.31,36.64,149.37,40.08,150.55,43.96z M186.71,34.1c-0.03-0.91-0.65-0.93-1.12-1.07
		c-2.85-0.89-5.73-1.72-8.57-2.65c-1.15-0.38-1.83,0.17-2.54,0.88c-5.53,5.57-11.05,11.17-16.62,16.71
		c-1.42,1.41-0.86,1.99,0.72,2.45c2.45,0.71,4.91,1.39,7.31,2.25c1.47,0.53,2.47,0.16,3.51-0.91c5.38-5.48,10.81-10.9,16.22-16.36
		C186.05,34.97,186.41,34.47,186.71,34.1z"/>
	</g>
</svg>
