<svg xmlns="http://www.w3.org/2000/svg" x="0px" y="0px" viewBox="0 0 200 200" style="enable-background:new 0 0 200 200;">
	<g>
		<path d="M71.38,1c4.7,0.77,9.41,1.5,13.89,3.18c24.25,9.05,38.56,26.36,42.97,51.84c0.68,3.95,0.53,7.96,0.49,11.95
		c-0.03,2.5-0.03,2.5,2.57,2.5c16.62,0,33.24,0,49.86,0c9.23,0,14.36,3.58,17.51,12.19c0.09,0.24,0.21,0.47,0.32,0.7
		c0,27.33,0,54.66,0,81.98c-0.15,0.36-0.34,0.7-0.44,1.07c-1.76,6.52-8.42,12.34-16.62,11.84c-1.48-0.09-2.97,0.08-4.44-0.04
		c-1.56-0.12-2,0.51-1.98,2.01c0.08,4.64-0.04,9.28,0.06,13.91c0.04,2.14-0.61,3.77-2.49,4.85c-1.03,0-2.06,0-3.09,0
		c-7.95-6.46-15.91-12.89-23.82-19.39c-1.17-0.96-2.33-1.39-3.85-1.38c-17.26,0.04-34.53-0.17-51.79,0.1
		c-9.43,0.15-17.34-7.87-17.05-17.1c0.33-10.3,0.06-20.61,0.09-30.92c0-1.26-0.1-2.07-1.77-1.9c-15.58,1.61-29.94-1.9-42.91-10.69
		c-1.96-1.33-3.64-1.64-5.85-0.96c-4,1.22-8.08,2.18-12.12,3.24c-1.82,0.48-3.61,0.58-5-1.01c-1.43-1.63-1.22-3.36-0.35-5.21
		c1.84-3.9,3.57-7.86,5.39-11.77c0.44-0.94,0.6-1.7-0.03-2.68c-5.38-8.3-8.61-17.38-9.72-27.21C1.19,71.87,1.07,71.63,1,71.38
		C1,67,1,62.62,1,58.23c0.85-5.61,1.96-11.15,4.07-16.45c1.12-2.82,2.33-5.59,3.87-8.21c1.57-2.67,3.67-3.51,5.87-2.34
		c2.22,1.18,2.72,3.58,1.21,6.35c-3.34,6.11-5.58,12.58-6.5,19.5c-1.8,13.55,0.73,26.23,8.27,37.64c2.39,3.62,3.2,6.68,0.76,10.38
		c-0.67,1.01-1.06,2.2-1.55,3.33c-0.17,0.39-0.55,0.82-0.15,1.25c0.38,0.41,0.85,0.1,1.27-0.01c2.06-0.53,4.14-0.98,6.16-1.64
		c2.63-0.85,4.76-0.35,6.99,1.37c7.97,6.18,17.06,9.85,27.08,10.91c15.52,1.64,29.57-2.28,41.68-12.21
		c12.42-10.19,19.26-23.39,20.46-39.5c2.09-28.01-17.39-52.83-44.04-58.4c-12.58-2.63-24.72-1.15-36.3,4.52
		c-0.93,0.45-1.83,0.95-2.75,1.42c-2.58,1.31-4.84,0.83-6.04-1.29c-1.22-2.14-0.45-4.33,2.06-5.8c3.63-2.13,7.49-3.72,11.47-5.07
		C49.22,2.49,53.73,1.74,58.23,1C62.62,1,67,1,71.38,1z M167.54,186.57c0-4.34-0.02-8.13,0.01-11.91c0.02-2.93,1.48-4.37,4.42-4.4
		c3.16-0.03,6.31,0,9.47-0.01c6.27-0.02,9.68-3.42,9.68-9.71c0.01-24.1,0.01-48.2,0-72.3c0-6.4-3.39-9.76-9.82-9.76
		c-17.14-0.01-34.28,0.03-51.42-0.04c-1.88-0.01-2.61,0.54-3.14,2.39c-6.43,22.64-20.87,37.71-43.2,45.16
		c-1.48,0.49-2.02,1.12-2.01,2.7c0.06,10.5,0.03,21.01,0.03,31.51c0,6.78,3.29,10.05,10.11,10.05c15.98,0,31.96,0.21,47.94-0.11
		c5.56-0.11,10.26,0.82,14.01,5.08c0.42,0.48,0.99,0.82,1.49,1.23C159.11,179.69,163.1,182.94,167.54,186.57z"/>
		<path d="M64.58,75.06c-2.06,3.96-4.2,7.38-6.88,10.46c-3.29,3.79-7.12,6.89-11.45,9.38c-2.5,1.44-4.85,1.01-6.08-1.05
		c-1.31-2.18-0.58-4.45,1.99-5.99c9.2-5.52,15.09-13.43,17.52-23.92c0.38-1.65,0.04-2.16-1.68-2.11c-3.6,0.11-7.21,0.05-10.82,0.02
		c-2.74-0.03-4.48-1.61-4.49-3.98c0-2.35,1.79-3.99,4.47-4.02c3.8-0.03,7.6-0.06,11.4,0.01c1.42,0.03,1.94-0.45,1.92-1.89
		c-0.06-4.57-0.03-9.15-0.01-13.72c0.01-2,0.91-3.47,2.82-4.19c1.63-0.62,3.05-0.1,4.23,1.08c1.03,1.03,1.21,2.37,1.21,3.76
		c0,4.25,0.06,8.5-0.03,12.75c-0.04,1.67,0.47,2.26,2.19,2.22c4.83-0.1,9.66-0.05,14.49-0.03c2.93,0.01,4.65,1.5,4.66,3.98
		c0.01,2.5-1.68,4-4.62,4.02c-4.83,0.03-9.66,0.04-14.49-0.01c-1.36-0.01-1.82,0.31-1.5,1.79C71.7,73.87,77.29,81.71,86.1,87.3
		c0.43,0.28,0.9,0.51,1.32,0.8c2.24,1.5,2.85,3.75,1.57,5.81c-1.2,1.94-3.51,2.43-5.76,1.17c-5.28-2.98-9.8-6.85-13.49-11.68
		C67.83,80.89,66.24,78.17,64.58,75.06z"/>
		<path d="M26.51,22.4c0.01,2.08-1.98,4.1-4.07,4.11c-2.13,0.01-4.05-1.9-4.09-4.07c-0.04-2.1,1.95-4.11,4.05-4.09
		C24.57,18.37,26.5,20.27,26.51,22.4z"/>
		<path d="M156.71,151.95c-2.02,0.02-3.21-1.13-3.96-2.85c-1.56-3.54-3.15-7.06-4.62-10.63c-0.59-1.42-1.34-2.1-3-2.07
		c-5.86,0.1-11.73,0.09-17.59,0.01c-1.53-0.02-2.33,0.52-2.9,1.92c-1.38,3.4-2.91,6.74-4.37,10.11c-0.39,0.89-0.78,1.77-1.5,2.45
		c-1.26,1.2-3.35,1.43-4.85,0.54c-1.55-0.92-2.41-2.93-1.73-4.69c1.14-2.94,2.42-5.83,3.73-8.7c0.56-1.22,0.65-2.1-0.31-3.3
		c-2.08-2.58-0.58-6.01,2.82-6.45c1.55-0.2,2.17-0.9,2.73-2.2c3.55-8.22,7.17-16.41,10.76-24.61c0.21-0.47,0.42-0.94,0.64-1.41
		c0.77-1.58,1.98-2.52,3.79-2.51c1.82,0,3.06,0.94,3.77,2.54c2.05,4.59,4.06,9.19,6.08,13.79c1.81,4.13,3.65,8.25,5.41,12.4
		c0.49,1.16,1.06,1.79,2.47,1.98c3.72,0.49,5.06,3.88,2.73,6.81c-0.76,0.96-0.61,1.7-0.19,2.64c1.3,2.94,2.69,5.86,3.82,8.87
		C161.48,149.33,159.56,151.93,156.71,151.95z M136.6,112.34c-0.17,0.01-0.35,0.02-0.52,0.02c-2.14,4.88-4.27,9.77-6.42,14.65
		c-0.51,1.16,0.26,1.15,1.02,1.15c3.28,0,6.57,0,9.85,0c3.43,0,3.06,0.13,1.79-2.8C140.45,121.01,138.51,116.68,136.6,112.34z"/>
	</g>
</svg>
