<svg xmlns="http://www.w3.org/2000/svg" x="0px" y="0px" viewBox="0 0 425 376">
	<g>
		<path d="M0.85,336.07c0-98.63,0-197.26,0-295.89c0.43-1.45,0.9-2.89,1.3-4.35C7.77,15.48,26.18,1.1,47.27,1.09
		C157.47,1.02,267.66,1,377.86,1.1c25.37,0.02,46.42,21.16,46.44,46.4c0.07,93.81,0.07,187.61,0,281.42
		c-0.02,25.09-21.01,46.23-46.11,46.25c-110.47,0.09-220.95,0.06-331.42,0.01c-11.01,0-20.72-3.87-29.23-10.84
		C8.51,356.96,3.51,347.21,0.85,336.07z M212.44,113.96c-63.78,0-127.56,0-191.34,0c-5.81,0-5.89,0.08-5.89,5.68
		c0,68.46,0,136.92-0.01,205.39c0,3.74,0.41,7.44,1.34,11.04c3.88,15.1,16.74,24.45,34.1,24.45c107.86,0.05,215.72,0.04,323.58-0.02
		c5.79,0,11.56-0.73,16.85-3.43c13.09-6.67,18.58-17.81,18.58-32.04c0.02-68.05,0.01-136.1,0.01-204.15c0-6.92,0-6.92-7.13-6.92
		C339.17,113.96,275.8,113.96,212.44,113.96z M212.35,98.72c63.77,0,127.54,0,191.32,0c5.92,0,5.99-0.09,5.99-6.02
		c0.01-13.91,0.07-27.82-0.03-41.73c-0.04-5.81-0.79-11.55-3.52-16.82c-6.96-13.41-18.61-18.38-33.05-18.38
		c-107.02,0.01-214.04,0-321.06,0.02c-4.13,0-8.28,0.26-12.27,1.35c-15.22,4.16-24.35,16.52-24.48,33.23
		c-0.11,13.77-0.03,27.55-0.03,41.32c0,7.01,0,7.02,7.06,7.02C85.63,98.73,148.99,98.73,212.35,98.72z"/>
		<path d="M231.69,163.63c-1.86,8.94-3.93,19.04-6.06,29.14c-7.04,33.39-14.1,66.78-21.16,100.17c-0.2,0.94-0.38,1.89-0.65,2.81
		c-1.36,4.71-4.77,7.27-8.62,6.48c-4.36-0.89-6.85-4.88-5.87-9.82c1.57-7.96,3.29-15.9,4.96-23.84
		c7.35-34.87,14.7-69.75,22.06-104.62c0.28-1.35,0.55-2.7,0.96-4.02c1.34-4.34,4.74-6.59,8.68-5.82
		C229.78,154.83,231.88,157.88,231.69,163.63z"/>
		<path d="M175.14,188.96c-0.07,3.36-2.08,5.54-4.46,7.56c-11.02,9.36-21.93,18.85-33.09,28.05c-3.06,2.52-2.74,3.85,0.07,6.18
		c10.18,8.43,20.21,17.05,30.26,25.64c1.98,1.69,4.03,3.39,5.65,5.41c2.36,2.95,2.21,6.24-0.32,9.04c-2.47,2.74-5.58,3.47-8.96,1.61
		c-1.2-0.66-2.3-1.52-3.35-2.4c-13.65-11.59-27.27-23.2-40.9-34.8c-0.52-0.45-1.04-0.9-1.53-1.39c-4.24-4.18-4.4-8.66,0.06-12.52
		c14.48-12.51,29.1-24.88,43.69-37.27c2.63-2.23,5.67-2.9,8.85-1.42C173.68,183.85,174.88,186.16,175.14,188.96z"/>
		<path d="M309.41,227.74c0.1,2.58-1.2,4.52-3.02,6.08c-14.65,12.53-29.29,25.07-44.05,37.47c-3.77,3.16-7.88,2.79-10.71-0.37
		c-2.92-3.25-2.64-7.54,1.27-10.93c11.22-9.76,22.6-19.33,33.92-28.98c3.92-3.34,3.92-3.36,0.13-6.59
		c-10.58-9.02-21.18-18.04-31.75-27.07c-1.15-0.98-2.34-1.95-3.32-3.09c-2.68-3.09-2.78-6.88-0.38-9.79
		c2.29-2.78,6.38-3.45,9.72-1.31c1.96,1.25,3.7,2.86,5.48,4.37c12.8,10.88,25.58,21.79,38.37,32.68
		C307.41,222.2,309.57,224.29,309.41,227.74z"/>
		<path d="M74.71,57.71c-0.02,12.51-10.09,22.48-22.63,22.4c-12.12-0.08-22.29-10.25-22.4-22.42C29.57,45.54,40.02,35.05,52.3,35.02
		C64.68,34.99,74.72,45.16,74.71,57.71z M52.2,50.32c-4.18,0.03-7.24,3.1-7.27,7.28c-0.03,4.19,3,7.23,7.24,7.27
		c4.32,0.04,7.76-3.33,7.62-7.47C59.65,53.34,56.37,50.28,52.2,50.32z"/>
		<path d="M120.08,80.18C107.72,80.14,97.82,70.34,97.67,58c-0.15-12.24,10.15-22.68,22.46-22.79c12.34-0.11,22.48,10.11,22.46,22.63
		C142.58,70.5,132.78,80.23,120.08,80.18z M127.75,57.76c-0.02-4.07-3.61-7.45-7.8-7.35c-3.96,0.1-7.2,3.47-7.19,7.48
		c0.01,3.9,3.4,7.36,7.3,7.47C123.92,65.47,127.77,61.66,127.75,57.76z"/>
		<path d="M165.79,57.99c0.03-12.71,9.86-22.4,22.63-22.31c12.36,0.09,22.4,10.19,22.3,22.42c-0.1,12.37-10.62,22.73-22.83,22.49
		C175.49,80.34,165.76,70.39,165.79,57.99z M188.3,65.47c3.99-0.11,7.3-3.52,7.29-7.51c-0.02-4.1-3.78-7.69-7.81-7.44
		c-3.8,0.23-7.33,4.07-7.15,7.78C180.83,62.28,184.36,65.58,188.3,65.47z"/>
	</g>
</svg>
