<svg xmlns="http://www.w3.org/2000/svg" x="0px" y="0px" viewBox="0 0 200 200" style="enable-background:new 0 0 200 200;">
	<g>
		<path fill="#346DA5" d="M192.19,200c-61.31,0-122.63,0-183.94,0c-2.03-0.72-3.96-1.56-5.51-3.16c-1.31-1.34-1.74-3.13-2.69-4.65
		c0-61.44,0-122.89,0-184.33c0.73-0.47,0.67-1.33,0.99-2C2.51,2.73,5.2,1.18,8.26,0.05c61.18,0,122.36,0,183.55,0
		c4.16,1.31,6.98,3.95,8.2,8.2c0,61.05,0,122.1,0,183.16C199.16,195.88,196.31,198.52,192.19,200z M125.82,155.89
		c5.58-2.15,10.46-5.47,14.9-9.39c11.99-10.6,19.04-23.82,20.68-39.82c1.24-12.11-1.08-23.51-6.72-34.27
		c-0.27-0.51-0.35-1.31-1.32-1.25c0.39,2.78,0.4,5.54,0.24,8.31c-0.16,2.87-0.71,5.66-1.53,8.41c-3.94,13.27-9.2,26.06-14.37,38.88
		c-3.91,9.69-8.02,19.3-12.03,28.94c-0.01,0.14-0.02,0.28-0.03,0.41C125.69,156.04,125.75,155.96,125.82,155.89z M139.74,54.32
		c0.09-0.62-0.28-0.73-0.51-0.92c-14.72-11.87-31.29-17.2-50.17-13.87c-18.5,3.26-32.85,12.75-42.61,28.93
		c-1.06,1.76-1.03,1.79,1.08,1.79c8.98,0.01,17.96-0.01,26.94,0.03c0.77,0,2.18-0.61,2.19,0.74c0.01,1.56,0.96,3.43-0.68,4.7
		c-2.28,1.77-3.21,3.99-2.55,6.78c3.36,14.15,6.73,28.3,10.09,42.45c0.74,3.1,1.48,6.21,2.33,9.78c0.48-1.01,0.75-1.51,0.97-2.03
		c3.09-7.09,6.09-14.21,9.31-21.24c1.08-2.34,1.21-4.39,0.4-6.85c-2.58-7.83-4.59-15.85-7.93-23.42c-1.13-2.57-2.55-5.01-5.67-5.68
		c-0.52-0.11-0.54-0.48-0.55-0.88c-0.01-0.72,0.07-1.44-0.02-2.15c-0.24-1.73,0.34-2.3,2.19-2.28c10.61,0.1,21.21,0.05,31.82,0.05
		c2.82,0,2.84,0,2.81,2.75c-0.03,2.85,0.41,2.49-2.44,2.53c-0.85,0.01-1.69,0-2.54,0c-3.02,0.01-5.06,1.97-5.19,5.04
		c-0.09,2.09,0.18,4.15,0.76,6.16c4.47,15.33,8.93,30.67,13.43,46c0.14,0.49,0.03,1.2,0.86,1.5c5.02-10.06,10.26-19.99,14-30.62
		c0.55-1.55,0.76-3.15,0.67-4.8c-0.43-8-2.88-14.8-9.83-19.78c-8.18-5.87-6.74-18.47,2.26-23.03
		C133.91,54.63,136.74,53.99,139.74,54.32z M76.24,156.12c-0.21-0.67-0.29-0.91-0.36-1.16c-7.45-24.4-14.91-48.79-22.36-73.19
		c-1.28-4.18-4.13-6.22-8.49-6.29c-1.36-0.02-1.94,0.48-2.39,1.67c-4,10.51-5.16,21.35-3.36,32.39
		c2.42,14.87,9.54,27.22,21.06,36.96C65.02,150.47,70.18,153.67,76.24,156.12z M101.44,121.62c-0.3,0.55-0.48,0.81-0.6,1.11
		c-4.91,11.95-9.82,23.91-14.74,35.85c-0.39,0.95-0.47,1.37,0.82,1.65c8.84,1.91,17.65,1.88,26.49,0c1.57-0.33,1.66-0.78,1.16-2.14
		c-2.65-7.19-5.21-14.41-7.8-21.62C105.02,131.59,103.27,126.73,101.44,121.62z"/>
		<path fill="#FCFDFD" d="M139.74,54.32c-3-0.32-5.84,0.31-8.55,1.69c-9,4.56-10.45,17.16-2.26,23.03c6.94,4.98,9.4,11.78,9.83,19.78
		c0.09,1.64-0.13,3.24-0.67,4.8c-3.74,10.63-8.99,20.56-14,30.62c-0.84-0.3-0.72-1.02-0.86-1.5c-4.5-15.33-8.96-30.66-13.43-46
		c-0.59-2.01-0.85-4.07-0.76-6.16c0.13-3.07,2.17-5.03,5.19-5.04c0.85,0,1.69,0.01,2.54,0c2.86-0.04,2.42,0.32,2.44-2.53
		c0.03-2.75,0.01-2.75-2.81-2.75c-10.61,0-21.21,0.05-31.82-0.05c-1.85-0.02-2.42,0.55-2.19,2.28c0.1,0.7,0.01,1.43,0.02,2.15
		c0.01,0.39,0.02,0.76,0.55,0.88c3.11,0.66,4.53,3.11,5.67,5.68c3.34,7.57,5.35,15.59,7.93,23.42c0.81,2.46,0.68,4.51-0.4,6.85
		c-3.23,7.02-6.22,14.15-9.31,21.24c-0.23,0.52-0.49,1.03-0.97,2.03c-0.85-3.57-1.6-6.68-2.33-9.78
		c-3.37-14.15-6.74-28.3-10.09-42.45c-0.66-2.79,0.27-5,2.55-6.78c1.63-1.27,0.69-3.14,0.68-4.7c-0.01-1.35-1.43-0.73-2.19-0.74
		c-8.98-0.05-17.96-0.03-26.94-0.03c-2.11,0-2.14-0.03-1.08-1.79c9.77-16.18,24.12-25.67,42.61-28.93
		c18.88-3.33,35.45,2,50.17,13.87C139.47,53.58,139.83,53.7,139.74,54.32z"/>
		<path fill="#FCFDFD" d="M76.24,156.12c-6.06-2.45-11.22-5.65-15.9-9.61c-11.52-9.74-18.63-22.09-21.06-36.96
		c-1.8-11.04-0.64-21.89,3.36-32.39c0.45-1.19,1.03-1.69,2.39-1.67c4.36,0.07,7.21,2.11,8.49,6.29
		c7.45,24.4,14.91,48.79,22.36,73.19C75.95,155.21,76.03,155.45,76.24,156.12z"/>
	</g>
</svg>
