<svg xmlns="http://www.w3.org/2000/svg" x="0px" y="0px" viewBox="0 0 200 200" style="enable-background:new 0 0 200 200;">
	<g>
		<path d="M5.9,124.63c0-9.6-0.04-19.2,0.04-28.8c0.02-1.95-0.36-3.19-2.5-3.61C0.97,91.74,0,90.01,0,87.55
		c0.03-11.82-0.05-23.64,0.04-35.47C0.1,45.1,5.64,39.71,12.74,39.65c9.15-0.07,18.31-0.08,27.47,0.02
		c2.28,0.03,3.18-0.59,3.09-2.99c-0.12-3.1-0.35-6.23,0.23-9.31c1.89-10.05,8.87-16.73,19.81-17.21
		c14.63-0.64,29.34-0.85,43.96,0.13c11.66,0.78,19.15,9.4,19.37,21.12c0.03,1.78,0.11,3.56-0.02,5.33
		c-0.16,2.17,0.64,2.96,2.88,2.94c8.71-0.1,17.42-0.05,26.13-0.04c9.37,0.01,14.56,5.06,14.65,14.46
		c0.09,10.75,0.05,21.51,0.01,32.27c-0.01,3.99-0.65,4.82-4.44,6.21c-0.77,0.28-1.63,0.47-1.65,1.47c-0.05,2.49-0.12,4.98,0.01,7.46
		c0.07,1.36,1.44,1.35,2.44,1.64c17.27,5.09,28.27,16.3,32.26,33.89c6.1,26.89-15.07,53.29-42.62,53.36
		c-17.18,0.04-30.19-7.48-39.11-22.07c-1.03-1.69-2.23-1.94-3.93-1.94c-31.02,0.03-62.04-0.17-93.06,0.13
		c-9.33,0.09-14.72-6.9-14.42-14.4C6.17,142.95,5.89,133.79,5.9,124.63z M191.63,145.33c0.07-1.96,0.05-3.91-0.34-5.84
		c-4.01-19.84-21.8-32.27-41.75-29.2c-20.04,3.09-33.53,22.71-29.63,43.09c3.72,19.42,23.8,32.59,43.11,28.28
		c16.9-3.77,28.12-17.36,28.71-34.77C191.98,146.36,192.01,145.83,191.63,145.33z M85.28,47.82c0-0.01,0-0.02,0-0.03
		c-23.63,0-47.27-0.01-70.9,0.01c-4.79,0-6.45,1.56-6.49,6.34c-0.07,9.51,0,19.01-0.05,28.52c-0.01,1.66,0.45,2.55,2.22,3
		c20.06,5.04,40.1,10.15,60.14,15.29c1.76,0.45,2.53,0.06,2.89-1.81c0.77-3.92,3.31-6.17,7.24-6.78c3.09-0.48,6.2-0.5,9.29,0.01
		c3.83,0.63,6.37,2.89,7.02,6.68c0.39,2.24,1.12,2.47,3.12,1.96c19.87-5.08,39.75-10.1,59.65-15.06c2.09-0.52,2.85-1.43,2.82-3.64
		c-0.12-9.15-0.05-18.3-0.05-27.45c0-5.74-1.29-7.03-7.06-7.03C131.84,47.81,108.56,47.82,85.28,47.82z M65.27,158.52
		c0,0.01,0,0.02,0,0.03c14.84,0,29.68-0.03,44.52,0.04c2.21,0.01,3.05-0.1,2.49-2.86c-3.5-17.21,1.4-31.8,14.51-43.45
		c7.72-6.87,17.04-10.02,27.28-10.69c2.21-0.14,2.82-1.6,2.21-5.1c-0.4-2.26-1.91-0.97-2.86-0.73c-16.54,4.13-33.07,8.31-49.59,12.5
		c-2.14,0.54-4.73,0.65-6.26,1.96c-1.67,1.44-0.5,4.19-0.66,6.36c-0.34,4.62-3.64,8-8.25,8.16c-2.49,0.08-4.98,0.09-7.46,0
		c-4.27-0.15-7.37-2.83-8.12-7.07c-0.28-1.56-0.42-3.19-0.31-4.77c0.16-2.3-0.76-3.26-2.99-3.81c-17.49-4.35-34.95-8.84-52.42-13.28
		c-3.29-0.84-3.3-0.83-3.3,2.47c-0.01,17.77-0.02,35.55-0.01,53.32c0,5.49,1.42,6.91,6.96,6.91
		C35.76,158.53,50.52,158.52,65.27,158.52z M51.43,32.62c0,2.06,0.04,3.48-0.01,4.9c-0.05,1.64,0.78,2.13,2.31,2.14
		c1.54,0.01,2.33-0.46,2.27-2.13c-0.07-2.22-0.05-4.44,0-6.66c0.1-4.77,3.2-8.15,8-8.19c13.95-0.11,27.89-0.11,41.84,0
		c4.74,0.04,7.91,3.46,8.08,8.2c0.08,2.22,0.08,4.44,0.02,6.66c-0.05,1.68,0.78,2.11,2.29,2.11c1.56,0.01,2.3-0.53,2.25-2.16
		c-0.07-2.31,0.02-4.62-0.03-6.93c-0.14-6.89-5.46-12.39-12.38-12.44c-14.12-0.11-28.25-0.09-42.37,0
		c-5.69,0.04-10.32,3.73-11.86,9.04C51.26,29.16,51.49,31.22,51.43,32.62z M84.47,39.62c0,0,0,0.01,0,0.01
		c5.41,0,10.82,0.02,16.23-0.01c5.5-0.03,5.05,0.68,5.06-5.21c0.01-3.58-0.01-3.6-3.51-3.6c-10.82-0.01-21.65-0.04-32.47,0.01
		c-6.87,0.03-5.75-0.94-5.98,5.89c-0.08,2.45,0.86,3,3.1,2.95C72.76,39.54,78.61,39.62,84.47,39.62z M80.9,108.19
		c0,1.15,0,2.31,0,3.46c0,5.27,0.23,5.42,5.62,4.98c1.57-0.13,2.22-0.8,2.21-2.33c-0.03-4-0.01-7.99-0.03-11.99
		c0-0.8-0.01-1.8-1.01-1.93c-2.02-0.27-4.22-0.69-6.03,0.17c-1.57,0.74-0.59,2.74-0.74,4.17C80.8,105.87,80.89,107.04,80.9,108.19z" />
		<path d="M191.73,146.9c-1.98,2.74-7.87,3.88-10.72,2.06c-2.09-1.33-2.22-4.12-0.25-5.59c2.57-1.92,9.15-0.73,10.87,1.96
		C192.01,145.83,191.98,146.36,191.73,146.9z"/>
		<path d="M175.8,133.45c0.01,1.77-0.85,2.76-1.96,3.57c-5.15,3.78-10.32,7.53-15.46,11.32c-1.9,1.4-3.69,1.41-5.61,0.03
		c-6.19-4.46-12.43-8.85-18.61-13.32c-2.2-1.59-2.63-3.48-1.4-5.22c1.27-1.79,3.12-2.03,5.36-0.47c4.73,3.3,9.5,6.55,14.04,10.09
		c2.43,1.9,4.21,2.08,6.66,0.01c3.52-2.96,7.38-5.52,11.12-8.23c1.22-0.89,2.55-1.26,3.99-0.51
		C175.13,131.36,175.76,132.38,175.8,133.45z"/>
		<path d="M152.02,116.14c0.06-1.06-0.02-2.15,0.2-3.17c0.34-1.61,1.34-2.73,3.07-2.84c1.83-0.12,3.07,0.83,3.55,2.58
		c0.6,2.17,0.52,4.4,0.14,6.59c-0.32,1.87-1.54,3.08-3.5,2.97c-2.04-0.11-3.17-1.42-3.36-3.46c-0.08-0.88-0.01-1.77-0.01-2.65
		C152.07,116.14,152.05,116.14,152.02,116.14z"/>
		<path d="M125.83,142.64c4.11-0.05,6.01,1.1,5.95,3.56c-0.05,2.4-1.99,3.52-6.14,3.49c-1.06-0.01-2.14-0.03-3.16-0.25
		c-1.86-0.4-3-1.61-2.88-3.57c0.12-1.98,1.45-2.97,3.31-3.2C123.87,142.54,124.86,142.64,125.83,142.64z"/>
		<path d="M152.11,175.93c0-0.88-0.08-1.78,0.02-2.65c0.2-1.9,1.24-3.19,3.16-3.36c1.96-0.18,3.2,0.99,3.61,2.83
		c0.49,2.17,0.49,4.41-0.01,6.58c-0.4,1.75-1.63,2.81-3.44,2.71c-1.91-0.1-3.09-1.27-3.32-3.19c-0.12-0.96-0.02-1.94-0.02-2.92
		C152.12,175.93,152.12,175.93,152.11,175.93z"/>
	</g>
</svg>
